<?xml version="1.0" standalone="no"?>
<!DOCTYPE svg PUBLIC "-//W3C//DTD SVG 20010904//EN"
 "http://www.w3.org/TR/2001/REC-SVG-20010904/DTD/svg10.dtd">
<svg version="1.0" xmlns="http://www.w3.org/2000/svg"
 width="400.000000pt" height="400.000000pt" viewBox="0 0 400.000000 400.000000"
 preserveAspectRatio="xMidYMid meet">
<metadata>
Created by potrace 1.11, written by Peter Selinger 2001-2013
</metadata>
<g transform="translate(0.000000,400.000000) scale(0.100000,-0.100000)"
fill="#000000" stroke="none">
<path d="M0 2000 l0 -2000 2000 0 2000 0 0 2000 0 2000 -2000 0 -2000 0 0
-2000z m2280 1190 c321 -40 608 -206 760 -441 22 -34 37 -66 33 -70 -5 -4
-116 -85 -248 -178 l-240 -170 -24 46 c-33 66 -125 154 -194 187 -116 54 -292
72 -412 41 -178 -47 -315 -196 -371 -405 -25 -91 -25 -301 -1 -390 59 -212
202 -368 382 -416 67 -18 217 -18 290 1 125 33 241 120 292 218 16 32 29 47
38 43 23 -8 489 -288 504 -301 11 -11 8 -23 -22 -77 -97 -173 -297 -322 -537
-402 -149 -49 -246 -67 -396 -73 -155 -7 -291 12 -423 59 -158 56 -289 137
-418 260 -338 323 -471 796 -346 1228 88 306 307 568 599 717 137 70 235 100
424 127 56 8 231 5 310 -4z"/>
</g>
</svg>
