<svg xmlns="http://www.w3.org/2000/svg" width="1920" height="1080"><path d="M200,1234L-39,1237L389,1249Z" fill="#304346" stroke="#304346" stroke-width="1.51"/><path d="M-22,-202L407,-204L556,-220Z" fill="#376239" stroke="#376239" stroke-width="1.51"/><path d="M389,1249L-39,1237L1110,1301Z" fill="#1e3547" stroke="#1e3547" stroke-width="1.51"/><path d="M637,1255L389,1249L1110,1301Z" fill="#234255" stroke="#234255" stroke-width="1.51"/><path d="M855,1261L637,1255L1110,1301Z" fill="#264b5f" stroke="#264b5f" stroke-width="1.51"/><path d="M1087,-226L1231,-194L1573,-210Z" fill="#81ad7e" stroke="#81ad7e" stroke-width="1.51"/><path d="M1414,1279L1110,1301L1682,1316Z" fill="#6a7585" stroke="#6a7585" stroke-width="1.51"/><path d="M1573,-210L1917,-186L2025,-179Z" fill="#708c65" stroke="#708c65" stroke-width="1.51"/><path d="M2012,582L2056,672L2066,511Z" fill="#3f6073" stroke="#3f6073" stroke-width="1.51"/><path d="M2064,1048L2085,1148L2098,895Z" fill="#6c6e80" stroke="#6c6e80" stroke-width="1.51"/><path d="M2025,-179L2043,-132L2104,-109Z" fill="#405942" stroke="#405942" stroke-width="1.51"/><path d="M1963,12L2075,216L2112,6Z" fill="#283a44" stroke="#283a44" stroke-width="1.51"/><path d="M2075,216L2103,245L2112,6Z" fill="#152a3c" stroke="#152a3c" stroke-width="1.51"/><path d="M2104,-109L2036,-81L2112,6Z" fill="#33483e" stroke="#33483e" stroke-width="1.51"/><path d="M1926,1292L1879,1312L2133,1307Z" fill="#30344a" stroke="#30344a" stroke-width="1.51"/><path d="M2085,1148L2037,1181L2133,1307Z" fill="#363a50" stroke="#363a50" stroke-width="1.51"/><path d="M2098,895L2085,1148L2133,1307Z" fill="#4e5165" stroke="#4e5165" stroke-width="1.51"/><path d="M2056,672L2072,753L2146,395Z" fill="#3a5a6d" stroke="#3a5a6d" stroke-width="1.51"/><path d="M2066,511L2056,672L2146,395Z" fill="#284f63" stroke="#284f63" stroke-width="1.51"/><path d="M2072,753L2098,895L2146,395Z" fill="#4b6275" stroke="#4b6275" stroke-width="1.51"/><path d="M2103,245L1937,313L2146,395Z" fill="#243f52" stroke="#243f52" stroke-width="1.51"/><path d="M1937,313L2001,469L2146,395Z" fill="#2e4d5f" stroke="#2e4d5f" stroke-width="1.51"/><path d="M2001,469L2066,511L2146,395Z" fill="#284b5f" stroke="#284b5f" stroke-width="1.51"/><path d="M2104,-109L2112,6L2146,395Z" fill="#182c39" stroke="#182c39" stroke-width="1.51"/><path d="M2112,6L2103,245L2146,395Z" fill="#132b3e" stroke="#132b3e" stroke-width="1.51"/><path d="M2098,895L2133,1307L2146,395Z" fill="#747a8a" stroke="#747a8a" stroke-width="1.51"/><path d="M2012,582L2007,617L2056,672Z" fill="#4c697b" stroke="#4c697b" stroke-width="1.51"/><path d="M1963,12L1972,211L2075,216Z" fill="#27394b" stroke="#27394b" stroke-width="1.51"/><path d="M1989,924L2064,1048L2098,895Z" fill="#8a8c9a" stroke="#8a8c9a" stroke-width="1.51"/><path d="M2037,1181L1926,1292L2133,1307Z" fill="#32364c" stroke="#32364c" stroke-width="1.51"/><path d="M2072,753L1940,818L2098,895Z" fill="#7b8695" stroke="#7b8695" stroke-width="1.51"/><path d="M1940,818L1989,924L2098,895Z" fill="#8f95a1" stroke="#8f95a1" stroke-width="1.51"/><path d="M2075,216L1937,313L2103,245Z" fill="#253d4f" stroke="#253d4f" stroke-width="1.51"/><path d="M2036,-81L1963,12L2112,6Z" fill="#374b46" stroke="#374b46" stroke-width="1.51"/><path d="M1972,211L1937,313L2075,216Z" fill="#2e4455" stroke="#2e4455" stroke-width="1.51"/><path d="M2043,-132L2036,-81L2104,-109Z" fill="#3c5342" stroke="#3c5342" stroke-width="1.51"/><path d="M2064,1048L2037,1181L2085,1148Z" fill="#53566a" stroke="#53566a" stroke-width="1.51"/><path d="M1925,1015L2037,1181L2064,1048Z" fill="#6b6e7f" stroke="#6b6e7f" stroke-width="1.51"/><path d="M1989,924L1925,1015L2064,1048Z" fill="#8a8b99" stroke="#8a8b99" stroke-width="1.51"/><path d="M2056,672L1940,818L2072,753Z" fill="#6b7d8c" stroke="#6b7d8c" stroke-width="1.51"/><path d="M2001,469L2012,582L2066,511Z" fill="#355a6d" stroke="#355a6d" stroke-width="1.51"/><path d="M1925,1015L1859,1145L2037,1181Z" fill="#6f7182" stroke="#6f7182" stroke-width="1.51"/><path d="M2007,617L1940,818L2056,672Z" fill="#647a8a" stroke="#647a8a" stroke-width="1.51"/><path d="M1963,12L1863,73L1972,211Z" fill="#3b4d57" stroke="#3b4d57" stroke-width="1.51"/><path d="M1910,593L1940,818L2007,617Z" fill="#68808f" stroke="#68808f" stroke-width="1.51"/><path d="M1917,-186L2036,-81L2043,-132Z" fill="#4a634c" stroke="#4a634c" stroke-width="1.51"/><path d="M2025,-179L1917,-186L2043,-132Z" fill="#4f694c" stroke="#4f694c" stroke-width="1.51"/><path d="M1859,1145L1926,1292L2037,1181Z" fill="#535669" stroke="#535669" stroke-width="1.51"/><path d="M1917,-186L1963,12L2036,-81Z" fill="#4a6050" stroke="#4a6050" stroke-width="1.51"/><path d="M1937,313L1906,322L2001,469Z" fill="#3d596a" stroke="#3d596a" stroke-width="1.51"/><path d="M2001,469L1910,593L2012,582Z" fill="#436779" stroke="#436779" stroke-width="1.51"/><path d="M1209,1279L1110,1301L1414,1279Z" fill="#55687a" stroke="#55687a" stroke-width="1.51"/><path d="M1917,-186L1816,-118L1963,12Z" fill="#59715c" stroke="#59715c" stroke-width="1.51"/><path d="M1863,73L1836,130L1972,211Z" fill="#3e4f5d" stroke="#3e4f5d" stroke-width="1.51"/><path d="M1906,322L1827,398L2001,469Z" fill="#456273" stroke="#456273" stroke-width="1.51"/><path d="M1910,593L2007,617L2012,582Z" fill="#4f6f80" stroke="#4f6f80" stroke-width="1.51"/><path d="M1573,-210L1708,-134L1917,-186Z" fill="#849f77" stroke="#849f77" stroke-width="1.51"/><path d="M1910,593L1776,689L1940,818Z" fill="#7e93a1" stroke="#7e93a1" stroke-width="1.51"/><path d="M1895,967L1925,1015L1989,924Z" fill="#9e9fab" stroke="#9e9fab" stroke-width="1.51"/><path d="M1827,398L1910,593L2001,469Z" fill="#4a6c7d" stroke="#4a6c7d" stroke-width="1.51"/><path d="M1828,608L1776,689L1910,593Z" fill="#748f9d" stroke="#748f9d" stroke-width="1.51"/><path d="M1940,818L1895,967L1989,924Z" fill="#a3a6b2" stroke="#a3a6b2" stroke-width="1.51"/><path d="M1776,689L1805,825L1940,818Z" fill="#99a7b2" stroke="#99a7b2" stroke-width="1.51"/><path d="M1816,-118L1793,-24L1963,12Z" fill="#5b7163" stroke="#5b7163" stroke-width="1.51"/><path d="M1906,322L1937,313L1972,211Z" fill="#3a5263" stroke="#3a5263" stroke-width="1.51"/><path d="M1836,130L1906,322L1972,211Z" fill="#3d5162" stroke="#3d5162" stroke-width="1.51"/><path d="M1803,858L1895,967L1940,818Z" fill="#abb0ba" stroke="#abb0ba" stroke-width="1.51"/><path d="M1793,-24L1863,73L1963,12Z" fill="#516460" stroke="#516460" stroke-width="1.51"/><path d="M1827,398L1828,608L1910,593Z" fill="#597c8d" stroke="#597c8d" stroke-width="1.51"/><path d="M1708,-134L1816,-118L1917,-186Z" fill="#6f8a6a" stroke="#6f8a6a" stroke-width="1.51"/><path d="M1859,1145L1879,1312L1926,1292Z" fill="#505467" stroke="#505467" stroke-width="1.51"/><path d="M1805,825L1803,858L1940,818Z" fill="#a5aeb9" stroke="#a5aeb9" stroke-width="1.51"/><path d="M1827,398L1740,456L1828,608Z" fill="#628392" stroke="#628392" stroke-width="1.51"/><path d="M556,-220L615,-208L1087,-226Z" fill="#427a53" stroke="#427a53" stroke-width="1.51"/><path d="M1708,1041L1859,1145L1895,967Z" fill="#9c9da9" stroke="#9c9da9" stroke-width="1.51"/><path d="M1836,130L1723,337L1906,322Z" fill="#506574" stroke="#506574" stroke-width="1.51"/><path d="M1895,967L1859,1145L1925,1015Z" fill="#90919e" stroke="#90919e" stroke-width="1.51"/><path d="M1803,858L1779,879L1895,967Z" fill="#bcbfc7" stroke="#bcbfc7" stroke-width="1.51"/><path d="M1723,337L1827,398L1906,322Z" fill="#56707f" stroke="#56707f" stroke-width="1.51"/><path d="M1682,163L1723,337L1836,130Z" fill="#5c6e7c" stroke="#5c6e7c" stroke-width="1.51"/><path d="M1859,1145L1674,1182L1879,1312Z" fill="#6c6e7f" stroke="#6c6e7f" stroke-width="1.51"/><path d="M1674,1182L1682,1316L1879,1312Z" fill="#66687a" stroke="#66687a" stroke-width="1.51"/><path d="M1779,879L1708,1041L1895,967Z" fill="#bfc0c7" stroke="#bfc0c7" stroke-width="1.51"/><path d="M1740,456L1730,586L1828,608Z" fill="#6e919f" stroke="#6e919f" stroke-width="1.51"/><path d="M1793,-24L1769,36L1863,73Z" fill="#5c6f6c" stroke="#5c6f6c" stroke-width="1.51"/><path d="M1776,689L1737,735L1805,825Z" fill="#a0b1ba" stroke="#a0b1ba" stroke-width="1.51"/><path d="M1708,1041L1690,1110L1859,1145Z" fill="#9b9ca8" stroke="#9b9ca8" stroke-width="1.51"/><path d="M1769,36L1836,130L1863,73Z" fill="#526469" stroke="#526469" stroke-width="1.51"/><path d="M1690,1110L1674,1182L1859,1145Z" fill="#8e8f9d" stroke="#8e8f9d" stroke-width="1.51"/><path d="M1769,36L1682,163L1836,130Z" fill="#5a6c73" stroke="#5a6c73" stroke-width="1.51"/><path d="M1660,936L1708,1041L1779,879Z" fill="#d4d5da" stroke="#d4d5da" stroke-width="1.51"/><path d="M1730,586L1776,689L1828,608Z" fill="#809ba8" stroke="#809ba8" stroke-width="1.51"/><path d="M1723,337L1740,456L1827,398Z" fill="#64808e" stroke="#64808e" stroke-width="1.51"/><path d="M1708,-134L1793,-24L1816,-118Z" fill="#728a71" stroke="#728a71" stroke-width="1.51"/><path d="M1779,879L1803,858L1805,825Z" fill="#b6bdc6" stroke="#b6bdc6" stroke-width="1.51"/><path d="M1737,735L1779,879L1805,825Z" fill="#b0bbc4" stroke="#b0bbc4" stroke-width="1.51"/><path d="M1730,586L1675,647L1776,689Z" fill="#8ea8b3" stroke="#8ea8b3" stroke-width="1.51"/><path d="M1737,735L1596,835L1779,879Z" fill="#c1cbd1" stroke="#c1cbd1" stroke-width="1.51"/><path d="M1618,-33L1769,36L1793,-24Z" fill="#708579" stroke="#708579" stroke-width="1.51"/><path d="M1708,-134L1618,-33L1793,-24Z" fill="#7b927d" stroke="#7b927d" stroke-width="1.51"/><path d="M1596,835L1660,936L1779,879Z" fill="#d7dce1" stroke="#d7dce1" stroke-width="1.51"/><path d="M1675,647L1737,735L1776,689Z" fill="#9bb0ba" stroke="#9bb0ba" stroke-width="1.51"/><path d="M1723,337L1641,424L1740,456Z" fill="#718d9a" stroke="#718d9a" stroke-width="1.51"/><path d="M1578,104L1682,163L1769,36Z" fill="#6d7e82" stroke="#6d7e82" stroke-width="1.51"/><path d="M1618,-33L1578,104L1769,36Z" fill="#7a8c86" stroke="#7a8c86" stroke-width="1.51"/><path d="M1682,163L1576,222L1723,337Z" fill="#6f838f" stroke="#6f838f" stroke-width="1.51"/><path d="M1576,222L1575,318L1723,337Z" fill="#79909b" stroke="#79909b" stroke-width="1.51"/><path d="M1663,596L1675,647L1730,586Z" fill="#8eabb6" stroke="#8eabb6" stroke-width="1.51"/><path d="M1663,596L1730,586L1740,456Z" fill="#799ca9" stroke="#799ca9" stroke-width="1.51"/><path d="M1641,424L1663,596L1740,456Z" fill="#7a9ca8" stroke="#7a9ca8" stroke-width="1.51"/><path d="M1675,647L1549,791L1737,735Z" fill="#b3c6cd" stroke="#b3c6cd" stroke-width="1.51"/><path d="M1549,791L1596,835L1737,735Z" fill="#cad7db" stroke="#cad7db" stroke-width="1.51"/><path d="M1674,1182L1599,1234L1682,1316Z" fill="#818391" stroke="#818391" stroke-width="1.51"/><path d="M1660,936L1618,1047L1708,1041Z" fill="#cdcdd3" stroke="#cdcdd3" stroke-width="1.51"/><path d="M1575,318L1641,424L1723,337Z" fill="#7a949f" stroke="#7a949f" stroke-width="1.51"/><path d="M1557,-190L1618,-33L1708,-134Z" fill="#92ac8a" stroke="#92ac8a" stroke-width="1.51"/><path d="M1573,-210L1557,-190L1708,-134Z" fill="#9db98c" stroke="#9db98c" stroke-width="1.51"/><path d="M1618,1047L1690,1110L1708,1041Z" fill="#b7b8c0" stroke="#b7b8c0" stroke-width="1.51"/><path d="M1641,424L1554,596L1663,596Z" fill="#8baeb9" stroke="#8baeb9" stroke-width="1.51"/><path d="M1599,1234L1414,1279L1682,1316Z" fill="#898b99" stroke="#898b99" stroke-width="1.51"/><path d="M1618,1047L1674,1182L1690,1110Z" fill="#a9abb5" stroke="#a9abb5" stroke-width="1.51"/><path d="M1618,1047L1599,1234L1674,1182Z" fill="#a3a4af" stroke="#a3a4af" stroke-width="1.51"/><path d="M1554,596L1549,791L1675,647Z" fill="#b5cbd2" stroke="#b5cbd2" stroke-width="1.51"/><path d="M1578,104L1576,222L1682,163Z" fill="#74848f" stroke="#74848f" stroke-width="1.51"/><path d="M1551,994L1618,1047L1660,936Z" fill="#dddee2" stroke="#dddee2" stroke-width="1.51"/><path d="M1663,596L1554,596L1675,647Z" fill="#9cb8c2" stroke="#9cb8c2" stroke-width="1.51"/><path d="M1231,-194L1353,-146L1573,-210Z" fill="#8cb286" stroke="#8cb286" stroke-width="1.51"/><path d="M1476,1195L1599,1234L1618,1047Z" fill="#afb0ba" stroke="#afb0ba" stroke-width="1.51"/><path d="M1596,835L1551,994L1660,936Z" fill="#f3f4f5" stroke="#f3f4f5" stroke-width="1.51"/><path d="M1545,282L1575,318L1576,222Z" fill="#859ba4" stroke="#859ba4" stroke-width="1.51"/><path d="M1482,1218L1414,1279L1599,1234Z" fill="#8b8f9d" stroke="#8b8f9d" stroke-width="1.51"/><path d="M1575,318L1465,379L1641,424Z" fill="#8da7b1" stroke="#8da7b1" stroke-width="1.51"/><path d="M1465,379L1554,596L1641,424Z" fill="#92b1bb" stroke="#92b1bb" stroke-width="1.51"/><path d="M1457,624L1549,791L1554,596Z" fill="#b3cdd3" stroke="#b3cdd3" stroke-width="1.51"/><path d="M1466,846L1551,994L1596,835Z" fill="#f0f5f7" stroke="#f0f5f7" stroke-width="1.51"/><path d="M1551,994L1476,1195L1618,1047Z" fill="#c9cad1" stroke="#c9cad1" stroke-width="1.51"/><path d="M1474,-31L1578,104L1618,-33Z" fill="#90a496" stroke="#90a496" stroke-width="1.51"/><path d="M1557,-190L1474,-31L1618,-33Z" fill="#9ab496" stroke="#9ab496" stroke-width="1.51"/><path d="M1465,379L1365,533L1554,596Z" fill="#84abb6" stroke="#84abb6" stroke-width="1.51"/><path d="M1436,-101L1474,-31L1557,-190Z" fill="#93b190" stroke="#93b190" stroke-width="1.51"/><path d="M1353,-146L1557,-190L1573,-210Z" fill="#9ebe90" stroke="#9ebe90" stroke-width="1.51"/><path d="M1474,-31L1446,18L1578,104Z" fill="#849b92" stroke="#849b92" stroke-width="1.51"/><path d="M1473,147L1576,222L1578,104Z" fill="#7b8c95" stroke="#7b8c95" stroke-width="1.51"/><path d="M1549,791L1466,846L1596,835Z" fill="#dfe9ec" stroke="#dfe9ec" stroke-width="1.51"/><path d="M1476,1195L1482,1218L1599,1234Z" fill="#979aa7" stroke="#979aa7" stroke-width="1.51"/><path d="M1377,432L1365,533L1465,379Z" fill="#769fab" stroke="#769fab" stroke-width="1.51"/><path d="M1375,1047L1476,1195L1551,994Z" fill="#bcc2c9" stroke="#bcc2c9" stroke-width="1.51"/><path d="M1365,533L1457,624L1554,596Z" fill="#92b7c1" stroke="#92b7c1" stroke-width="1.51"/><path d="M1545,282L1465,379L1575,318Z" fill="#849ea8" stroke="#849ea8" stroke-width="1.51"/><path d="M1446,18L1473,147L1578,104Z" fill="#7c9191" stroke="#7c9191" stroke-width="1.51"/><path d="M1473,147L1545,282L1576,222Z" fill="#7e929b" stroke="#7e929b" stroke-width="1.51"/><path d="M1466,846L1400,915L1551,994Z" fill="#edf3f4" stroke="#edf3f4" stroke-width="1.51"/><path d="M1473,147L1418,191L1545,282Z" fill="#758b96" stroke="#758b96" stroke-width="1.51"/><path d="M1375,685L1466,846L1549,791Z" fill="#c4d8de" stroke="#c4d8de" stroke-width="1.51"/><path d="M1457,624L1375,685L1549,791Z" fill="#b1cbd2" stroke="#b1cbd2" stroke-width="1.51"/><path d="M1353,-146L1436,-101L1557,-190Z" fill="#91b28c" stroke="#91b28c" stroke-width="1.51"/><path d="M1400,915L1375,1047L1551,994Z" fill="#d7dfe2" stroke="#d7dfe2" stroke-width="1.51"/><path d="M1418,191L1465,379L1545,282Z" fill="#79949e" stroke="#79949e" stroke-width="1.51"/><path d="M1418,191L1336,296L1465,379Z" fill="#6e8d98" stroke="#6e8d98" stroke-width="1.51"/><path d="M1375,685L1344,759L1466,846Z" fill="#b6ced5" stroke="#b6ced5" stroke-width="1.51"/><path d="M1446,18L1387,23L1473,147Z" fill="#768f8c" stroke="#768f8c" stroke-width="1.51"/><path d="M1387,23L1418,191L1473,147Z" fill="#6d848a" stroke="#6d848a" stroke-width="1.51"/><path d="M1375,1047L1323,1169L1476,1195Z" fill="#9ca6b2" stroke="#9ca6b2" stroke-width="1.51"/><path d="M1476,1195L1414,1279L1482,1218Z" fill="#888f9d" stroke="#888f9d" stroke-width="1.51"/><path d="M1323,1169L1414,1279L1476,1195Z" fill="#858f9d" stroke="#858f9d" stroke-width="1.51"/><path d="M1387,23L1446,18L1474,-31Z" fill="#7d988b" stroke="#7d988b" stroke-width="1.51"/><path d="M1436,-101L1387,23L1474,-31Z" fill="#829e8b" stroke="#829e8b" stroke-width="1.51"/><path d="M1336,296L1377,432L1465,379Z" fill="#7095a1" stroke="#7095a1" stroke-width="1.51"/><path d="M1344,759L1400,915L1466,846Z" fill="#ccdde1" stroke="#ccdde1" stroke-width="1.51"/><path d="M1365,533L1375,685L1457,624Z" fill="#8fb5c0" stroke="#8fb5c0" stroke-width="1.51"/><path d="M1387,23L1258,89L1418,191Z" fill="#638084" stroke="#638084" stroke-width="1.51"/><path d="M1312,-65L1387,23L1436,-101Z" fill="#7a9a86" stroke="#7a9a86" stroke-width="1.51"/><path d="M1353,-146L1312,-65L1436,-101Z" fill="#7fa385" stroke="#7fa385" stroke-width="1.51"/><path d="M1336,296L1294,415L1377,432Z" fill="#67909c" stroke="#67909c" stroke-width="1.51"/><path d="M1344,759L1259,784L1400,915Z" fill="#bad1d7" stroke="#bad1d7" stroke-width="1.51"/><path d="M1259,784L1287,947L1400,915Z" fill="#c8dadf" stroke="#c8dadf" stroke-width="1.51"/><path d="M1287,947L1375,1047L1400,915Z" fill="#ced9de" stroke="#ced9de" stroke-width="1.51"/><path d="M1248,225L1336,296L1418,191Z" fill="#5e7f8c" stroke="#5e7f8c" stroke-width="1.51"/><path d="M1258,89L1248,225L1418,191Z" fill="#567582" stroke="#567582" stroke-width="1.51"/><path d="M1323,1169L1209,1279L1414,1279Z" fill="#6e7d8c" stroke="#6e7d8c" stroke-width="1.51"/><path d="M1365,533L1227,612L1375,685Z" fill="#81adb8" stroke="#81adb8" stroke-width="1.51"/><path d="M1294,415L1258,517L1365,533Z" fill="#6899a6" stroke="#6899a6" stroke-width="1.51"/><path d="M1294,415L1365,533L1377,432Z" fill="#6d9aa6" stroke="#6d9aa6" stroke-width="1.51"/><path d="M1312,-65L1258,89L1387,23Z" fill="#698a81" stroke="#698a81" stroke-width="1.51"/><path d="M1255,1175L1209,1279L1323,1169Z" fill="#708291" stroke="#708291" stroke-width="1.51"/><path d="M1248,986L1255,1175L1323,1169Z" fill="#91a2ae" stroke="#91a2ae" stroke-width="1.51"/><path d="M1258,517L1227,612L1365,533Z" fill="#6b9fac" stroke="#6b9fac" stroke-width="1.51"/><path d="M1248,986L1323,1169L1375,1047Z" fill="#a6b4be" stroke="#a6b4be" stroke-width="1.51"/><path d="M1287,947L1248,986L1375,1047Z" fill="#bdccd2" stroke="#bdccd2" stroke-width="1.51"/><path d="M1227,612L1344,759L1375,685Z" fill="#94b8c2" stroke="#94b8c2" stroke-width="1.51"/><path d="M1227,612L1259,784L1344,759Z" fill="#96b9c3" stroke="#96b9c3" stroke-width="1.51"/><path d="M1248,986L1172,1072L1255,1175Z" fill="#93a7b2" stroke="#93a7b2" stroke-width="1.51"/><path d="M1231,-194L1312,-65L1353,-146Z" fill="#78a07f" stroke="#78a07f" stroke-width="1.51"/><path d="M1230,285L1294,415L1336,296Z" fill="#5c8592" stroke="#5c8592" stroke-width="1.51"/><path d="M1248,225L1230,285L1336,296Z" fill="#557d8a" stroke="#557d8a" stroke-width="1.51"/><path d="M615,-208L858,-158L1087,-226Z" fill="#447e5b" stroke="#447e5b" stroke-width="1.51"/><path d="M1175,-99L1258,89L1312,-65Z" fill="#63897b" stroke="#63897b" stroke-width="1.51"/><path d="M1231,-194L1175,-99L1312,-65Z" fill="#6d977a" stroke="#6d977a" stroke-width="1.51"/><path d="M1259,784L1120,854L1287,947Z" fill="#b3ccd3" stroke="#b3ccd3" stroke-width="1.51"/><path d="M1227,612L1111,672L1259,784Z" fill="#81acb8" stroke="#81acb8" stroke-width="1.51"/><path d="M1111,672L1105,721L1259,784Z" fill="#84adb9" stroke="#84adb9" stroke-width="1.51"/><path d="M1120,854L1248,986L1287,947Z" fill="#c3d7dd" stroke="#c3d7dd" stroke-width="1.51"/><path d="M1158,422L1258,517L1294,415Z" fill="#598e9b" stroke="#598e9b" stroke-width="1.51"/><path d="M1230,285L1158,422L1294,415Z" fill="#538492" stroke="#538492" stroke-width="1.51"/><path d="M1198,586L1227,612L1258,517Z" fill="#659ca9" stroke="#659ca9" stroke-width="1.51"/><path d="M1175,-99L1130,105L1258,89Z" fill="#517976" stroke="#517976" stroke-width="1.51"/><path d="M1136,169L1248,225L1258,89Z" fill="#466b79" stroke="#466b79" stroke-width="1.51"/><path d="M1120,854L1075,926L1248,986Z" fill="#b6ced5" stroke="#b6ced5" stroke-width="1.51"/><path d="M1130,105L1136,169L1258,89Z" fill="#436b74" stroke="#436b74" stroke-width="1.51"/><path d="M1105,721L1120,854L1259,784Z" fill="#94b8c2" stroke="#94b8c2" stroke-width="1.51"/><path d="M1158,422L1198,586L1258,517Z" fill="#56909f" stroke="#56909f" stroke-width="1.51"/><path d="M315,1239L200,1234L389,1249Z" fill="#263845" stroke="#263845" stroke-width="1.51"/><path d="M1085,1145L1209,1279L1255,1175Z" fill="#667c8c" stroke="#667c8c" stroke-width="1.51"/><path d="M1172,1072L1085,1145L1255,1175Z" fill="#79909e" stroke="#79909e" stroke-width="1.51"/><path d="M1157,263L1158,422L1230,285Z" fill="#487988" stroke="#487988" stroke-width="1.51"/><path d="M1075,926L1172,1072L1248,986Z" fill="#a5bcc5" stroke="#a5bcc5" stroke-width="1.51"/><path d="M1157,263L1230,285L1248,225Z" fill="#4b7583" stroke="#4b7583" stroke-width="1.51"/><path d="M1136,169L1157,263L1248,225Z" fill="#436e7c" stroke="#436e7c" stroke-width="1.51"/><path d="M1085,1145L1110,1301L1209,1279Z" fill="#506b7d" stroke="#506b7d" stroke-width="1.51"/><path d="M1198,586L1111,672L1227,612Z" fill="#6b9fac" stroke="#6b9fac" stroke-width="1.51"/><path d="M1087,-226L1175,-99L1231,-194Z" fill="#679873" stroke="#679873" stroke-width="1.51"/><path d="M1085,1145L1047,1221L1110,1301Z" fill="#4e6b7d" stroke="#4e6b7d" stroke-width="1.51"/><path d="M1105,721L1071,801L1120,854Z" fill="#8bb2bd" stroke="#8bb2bd" stroke-width="1.51"/><path d="M979,-18L1130,105L1175,-99Z" fill="#46766e" stroke="#46766e" stroke-width="1.51"/><path d="M1158,422L991,508L1198,586Z" fill="#458696" stroke="#458696" stroke-width="1.51"/><path d="M1050,646L1111,672L1198,586Z" fill="#649aa8" stroke="#649aa8" stroke-width="1.51"/><path d="M991,508L1050,646L1198,586Z" fill="#4b8d9c" stroke="#4b8d9c" stroke-width="1.51"/><path d="M989,469L991,508L1158,422Z" fill="#347b8c" stroke="#347b8c" stroke-width="1.51"/><path d="M1157,263L979,338L1158,422Z" fill="#397382" stroke="#397382" stroke-width="1.51"/><path d="M1075,926L1006,1012L1172,1072Z" fill="#95b0bb" stroke="#95b0bb" stroke-width="1.51"/><path d="M1043,-134L979,-18L1175,-99Z" fill="#4c7f6b" stroke="#4c7f6b" stroke-width="1.51"/><path d="M1087,-226L1043,-134L1175,-99Z" fill="#5a8e6e" stroke="#5a8e6e" stroke-width="1.51"/><path d="M1006,1012L1085,1145L1172,1072Z" fill="#7d99a5" stroke="#7d99a5" stroke-width="1.51"/><path d="M979,-18L972,4L1130,105Z" fill="#366968" stroke="#366968" stroke-width="1.51"/><path d="M1136,169L1050,205L1157,263Z" fill="#366775" stroke="#366775" stroke-width="1.51"/><path d="M1050,205L979,338L1157,263Z" fill="#2e6877" stroke="#2e6877" stroke-width="1.51"/><path d="M979,338L989,469L1158,422Z" fill="#307485" stroke="#307485" stroke-width="1.51"/><path d="M1006,1012L1003,1127L1085,1145Z" fill="#6e8d9c" stroke="#6e8d9c" stroke-width="1.51"/><path d="M1130,105L1050,205L1136,169Z" fill="#32606f" stroke="#32606f" stroke-width="1.51"/><path d="M972,4L1050,205L1130,105Z" fill="#2f606a" stroke="#2f606a" stroke-width="1.51"/><path d="M1071,801L1075,926L1120,854Z" fill="#9bbdc6" stroke="#9bbdc6" stroke-width="1.51"/><path d="M1047,1221L855,1261L1110,1301Z" fill="#34586c" stroke="#34586c" stroke-width="1.51"/><path d="M1050,646L1105,721L1111,672Z" fill="#6a9eac" stroke="#6a9eac" stroke-width="1.51"/><path d="M1050,646L1071,801L1105,721Z" fill="#74a4b0" stroke="#74a4b0" stroke-width="1.51"/><path d="M972,4L899,43L1050,205Z" fill="#225c63" stroke="#225c63" stroke-width="1.51"/><path d="M899,43L921,214L1050,205Z" fill="#0f5162" stroke="#0f5162" stroke-width="1.51"/><path d="M1050,646L907,734L1071,801Z" fill="#699eab" stroke="#699eab" stroke-width="1.51"/><path d="M1071,801L951,932L1075,926Z" fill="#99bbc5" stroke="#99bbc5" stroke-width="1.51"/><path d="M1003,1127L1047,1221L1085,1145Z" fill="#5a798a" stroke="#5a798a" stroke-width="1.51"/><path d="M858,-158L1043,-134L1087,-226Z" fill="#4b8665" stroke="#4b8665" stroke-width="1.51"/><path d="M954,1189L855,1261L1047,1221Z" fill="#385e71" stroke="#385e71" stroke-width="1.51"/><path d="M951,932L1006,1012L1075,926Z" fill="#97b7c1" stroke="#97b7c1" stroke-width="1.51"/><path d="M907,734L951,932L1071,801Z" fill="#7eaab6" stroke="#7eaab6" stroke-width="1.51"/><path d="M979,338L945,365L989,469Z" fill="#1d6b7c" stroke="#1d6b7c" stroke-width="1.51"/><path d="M937,-61L979,-18L1043,-134Z" fill="#3d7564" stroke="#3d7564" stroke-width="1.51"/><path d="M1003,1127L954,1189L1047,1221Z" fill="#4e7082" stroke="#4e7082" stroke-width="1.51"/><path d="M921,214L979,338L1050,205Z" fill="#1a5e6e" stroke="#1a5e6e" stroke-width="1.51"/><path d="M991,508L939,510L1050,646Z" fill="#308091" stroke="#308091" stroke-width="1.51"/><path d="M939,510L860,633L1050,646Z" fill="#378293" stroke="#378293" stroke-width="1.51"/><path d="M860,633L907,734L1050,646Z" fill="#4f8e9d" stroke="#4f8e9d" stroke-width="1.51"/><path d="M858,-158L937,-61L1043,-134Z" fill="#3d7861" stroke="#3d7861" stroke-width="1.51"/><path d="M921,214L908,336L979,338Z" fill="#145e70" stroke="#145e70" stroke-width="1.51"/><path d="M868,1031L1003,1127L1006,1012Z" fill="#6e92a0" stroke="#6e92a0" stroke-width="1.51"/><path d="M951,932L868,1031L1006,1012Z" fill="#82a5b1" stroke="#82a5b1" stroke-width="1.51"/><path d="M868,1031L954,1189L1003,1127Z" fill="#5a7d8d" stroke="#5a7d8d" stroke-width="1.51"/><path d="M907,734L781,819L951,932Z" fill="#79a4af" stroke="#79a4af" stroke-width="1.51"/><path d="M945,365L939,510L989,469Z" fill="#1b7082" stroke="#1b7082" stroke-width="1.51"/><path d="M989,469L939,510L991,508Z" fill="#217688" stroke="#217688" stroke-width="1.51"/><path d="M908,336L945,365L979,338Z" fill="#166476" stroke="#166476" stroke-width="1.51"/><path d="M937,-61L972,4L979,-18Z" fill="#326b62" stroke="#326b62" stroke-width="1.51"/><path d="M831,529L939,510L945,365Z" fill="#1a6e80" stroke="#1a6e80" stroke-width="1.51"/><path d="M868,1031L786,1085L954,1189Z" fill="#5c7d8c" stroke="#5c7d8c" stroke-width="1.51"/><path d="M937,-61L899,43L972,4Z" fill="#2e6661" stroke="#2e6661" stroke-width="1.51"/><path d="M899,43L774,70L921,214Z" fill="#18515b" stroke="#18515b" stroke-width="1.51"/><path d="M831,529L860,633L939,510Z" fill="#257788" stroke="#257788" stroke-width="1.51"/><path d="M908,336L831,529L945,365Z" fill="#176779" stroke="#176779" stroke-width="1.51"/><path d="M781,819L786,949L951,932Z" fill="#8aacb7" stroke="#8aacb7" stroke-width="1.51"/><path d="M786,1085L855,1261L954,1189Z" fill="#446677" stroke="#446677" stroke-width="1.51"/><path d="M786,949L868,1031L951,932Z" fill="#86a6b1" stroke="#86a6b1" stroke-width="1.51"/><path d="M802,315L831,529L908,336Z" fill="#166274" stroke="#166274" stroke-width="1.51"/><path d="M802,315L722,430L831,529Z" fill="#166173" stroke="#166173" stroke-width="1.51"/><path d="M774,70L745,197L921,214Z" fill="#0b4859" stroke="#0b4859" stroke-width="1.51"/><path d="M802,315L908,336L921,214Z" fill="#12596b" stroke="#12596b" stroke-width="1.51"/><path d="M785,-118L899,43L937,-61Z" fill="#32685c" stroke="#32685c" stroke-width="1.51"/><path d="M858,-158L798,-130L937,-61Z" fill="#3a725b" stroke="#3a725b" stroke-width="1.51"/><path d="M798,-130L785,-118L937,-61Z" fill="#386e5a" stroke="#386e5a" stroke-width="1.51"/><path d="M742,1221L637,1255L855,1261Z" fill="#2b4a5d" stroke="#2b4a5d" stroke-width="1.51"/><path d="M615,-208L798,-130L858,-158Z" fill="#3d7254" stroke="#3d7254" stroke-width="1.51"/><path d="M785,-118L774,70L899,43Z" fill="#2a5d59" stroke="#2a5d59" stroke-width="1.51"/><path d="M745,197L802,315L921,214Z" fill="#0f5162" stroke="#0f5162" stroke-width="1.51"/><path d="M786,1085L742,1221L855,1261Z" fill="#3e5d6f" stroke="#3e5d6f" stroke-width="1.51"/><path d="M860,633L781,819L907,734Z" fill="#5d919e" stroke="#5d919e" stroke-width="1.51"/><path d="M781,605L666,713L781,819Z" fill="#548694" stroke="#548694" stroke-width="1.51"/><path d="M831,529L781,605L860,633Z" fill="#307889" stroke="#307889" stroke-width="1.51"/><path d="M781,605L781,819L860,633Z" fill="#4f8795" stroke="#4f8795" stroke-width="1.51"/><path d="M786,949L760,1065L868,1031Z" fill="#7593a0" stroke="#7593a0" stroke-width="1.51"/><path d="M760,1065L786,1085L868,1031Z" fill="#678593" stroke="#678593" stroke-width="1.51"/><path d="M703,46L774,70L785,-118Z" fill="#285954" stroke="#285954" stroke-width="1.51"/><path d="M-22,-202L30,-187L407,-204Z" fill="#407237" stroke="#407237" stroke-width="1.51"/><path d="M706,338L722,430L802,315Z" fill="#115869" stroke="#115869" stroke-width="1.51"/><path d="M722,430L781,605L831,529Z" fill="#196b7d" stroke="#196b7d" stroke-width="1.51"/><path d="M30,-187L241,-167L407,-204Z" fill="#3a6739" stroke="#3a6739" stroke-width="1.51"/><path d="M722,430L616,545L781,605Z" fill="#176778" stroke="#176778" stroke-width="1.51"/><path d="M666,713L652,784L781,819Z" fill="#638d99" stroke="#638d99" stroke-width="1.51"/><path d="M647,-59L703,46L785,-118Z" fill="#2c5d51" stroke="#2c5d51" stroke-width="1.51"/><path d="M760,1065L742,1221L786,1085Z" fill="#516f7f" stroke="#516f7f" stroke-width="1.51"/><path d="M781,819L654,847L786,949Z" fill="#7fa0ab" stroke="#7fa0ab" stroke-width="1.51"/><path d="M615,-208L785,-118L798,-130Z" fill="#3a6e53" stroke="#3a6e53" stroke-width="1.51"/><path d="M745,197L706,338L802,315Z" fill="#0f5061" stroke="#0f5061" stroke-width="1.51"/><path d="M611,1184L742,1221L760,1065Z" fill="#456172" stroke="#456172" stroke-width="1.51"/><path d="M703,46L745,197L774,70Z" fill="#154953" stroke="#154953" stroke-width="1.51"/><path d="M615,-208L647,-59L785,-118Z" fill="#366750" stroke="#366750" stroke-width="1.51"/><path d="M617,966L760,1065L786,949Z" fill="#7994a0" stroke="#7994a0" stroke-width="1.51"/><path d="M654,847L617,966L786,949Z" fill="#89a4ae" stroke="#89a4ae" stroke-width="1.51"/><path d="M597,1155L611,1184L760,1065Z" fill="#4a6474" stroke="#4a6474" stroke-width="1.51"/><path d="M616,545L666,713L781,605Z" fill="#377383" stroke="#377383" stroke-width="1.51"/><path d="M652,784L654,847L781,819Z" fill="#6f949f" stroke="#6f949f" stroke-width="1.51"/><path d="M624,196L706,338L745,197Z" fill="#0c4959" stroke="#0c4959" stroke-width="1.51"/><path d="M703,46L624,196L745,197Z" fill="#0a404f" stroke="#0a404f" stroke-width="1.51"/><path d="M617,966L597,1155L760,1065Z" fill="#607a88" stroke="#607a88" stroke-width="1.51"/><path d="M611,1184L637,1255L742,1221Z" fill="#304c5e" stroke="#304c5e" stroke-width="1.51"/><path d="M616,545L563,607L666,713Z" fill="#356f7e" stroke="#356f7e" stroke-width="1.51"/><path d="M624,196L623,371L706,338Z" fill="#0d4c5c" stroke="#0d4c5c" stroke-width="1.51"/><path d="M706,338L623,371L722,430Z" fill="#115667" stroke="#115667" stroke-width="1.51"/><path d="M623,371L616,545L722,430Z" fill="#135b6c" stroke="#135b6c" stroke-width="1.51"/><path d="M647,-59L550,1L703,46Z" fill="#24514c" stroke="#24514c" stroke-width="1.51"/><path d="M550,1L624,196L703,46Z" fill="#17454c" stroke="#17454c" stroke-width="1.51"/><path d="M545,508L616,545L623,371Z" fill="#135a6b" stroke="#135a6b" stroke-width="1.51"/><path d="M513,1023L597,1155L617,966Z" fill="#627986" stroke="#627986" stroke-width="1.51"/><path d="M519,455L545,508L623,371Z" fill="#105465" stroke="#105465" stroke-width="1.51"/><path d="M550,1L500,172L624,196Z" fill="#0d3b47" stroke="#0d3b47" stroke-width="1.51"/><path d="M517,278L623,371L624,196Z" fill="#0b4556" stroke="#0b4556" stroke-width="1.51"/><path d="M615,-208L543,-38L647,-59Z" fill="#305e4a" stroke="#305e4a" stroke-width="1.51"/><path d="M558,876L617,966L654,847Z" fill="#809aa5" stroke="#809aa5" stroke-width="1.51"/><path d="M547,768L652,784L666,713Z" fill="#5c8591" stroke="#5c8591" stroke-width="1.51"/><path d="M563,607L547,768L666,713Z" fill="#4b7987" stroke="#4b7987" stroke-width="1.51"/><path d="M556,-220L543,-38L615,-208Z" fill="#356347" stroke="#356347" stroke-width="1.51"/><path d="M571,1202L389,1249L637,1255Z" fill="#283f51" stroke="#283f51" stroke-width="1.51"/><path d="M543,-38L550,1L647,-59Z" fill="#275249" stroke="#275249" stroke-width="1.51"/><path d="M652,784L547,768L654,847Z" fill="#688b97" stroke="#688b97" stroke-width="1.51"/><path d="M547,768L558,876L654,847Z" fill="#6e8e99" stroke="#6e8e99" stroke-width="1.51"/><path d="M611,1184L571,1202L637,1255Z" fill="#304a5c" stroke="#304a5c" stroke-width="1.51"/><path d="M458,-81L543,-38L556,-220Z" fill="#2f5a45" stroke="#2f5a45" stroke-width="1.51"/><path d="M500,172L517,278L624,196Z" fill="#073c4c" stroke="#073c4c" stroke-width="1.51"/><path d="M517,278L519,455L623,371Z" fill="#0d4c5c" stroke="#0d4c5c" stroke-width="1.51"/><path d="M545,508L563,607L616,545Z" fill="#1b6172" stroke="#1b6172" stroke-width="1.51"/><path d="M558,876L513,1023L617,966Z" fill="#7e959f" stroke="#7e959f" stroke-width="1.51"/><path d="M597,1155L571,1202L611,1184Z" fill="#3a5263" stroke="#3a5263" stroke-width="1.51"/><path d="M513,1023L571,1202L597,1155Z" fill="#49606f" stroke="#49606f" stroke-width="1.51"/><path d="M380,1058L373,1175L513,1023Z" fill="#506271" stroke="#506271" stroke-width="1.51"/><path d="M517,278L399,358L519,455Z" fill="#0b4757" stroke="#0b4757" stroke-width="1.51"/><path d="M430,16L500,172L550,1Z" fill="#163f43" stroke="#163f43" stroke-width="1.51"/><path d="M407,-204L458,-81L556,-220Z" fill="#335f42" stroke="#335f42" stroke-width="1.51"/><path d="M547,768L453,853L558,876Z" fill="#6c8995" stroke="#6c8995" stroke-width="1.51"/><path d="M453,853L513,1023L558,876Z" fill="#8196a0" stroke="#8196a0" stroke-width="1.51"/><path d="M397,697L547,768L563,607Z" fill="#467180" stroke="#467180" stroke-width="1.51"/><path d="M513,1023L373,1175L571,1202Z" fill="#445969" stroke="#445969" stroke-width="1.51"/><path d="M373,1175L389,1249L571,1202Z" fill="#2d4152" stroke="#2d4152" stroke-width="1.51"/><path d="M545,508L362,535L563,607Z" fill="#185b6c" stroke="#185b6c" stroke-width="1.51"/><path d="M362,535L397,697L563,607Z" fill="#2d6271" stroke="#2d6271" stroke-width="1.51"/><path d="M413,794L453,853L547,768Z" fill="#63828d" stroke="#63828d" stroke-width="1.51"/><path d="M397,697L413,794L547,768Z" fill="#557885" stroke="#557885" stroke-width="1.51"/><path d="M543,-38L430,16L550,1Z" fill="#224a44" stroke="#224a44" stroke-width="1.51"/><path d="M458,-81L430,16L543,-38Z" fill="#244b42" stroke="#244b42" stroke-width="1.51"/><path d="M519,455L362,535L545,508Z" fill="#115465" stroke="#115465" stroke-width="1.51"/><path d="M453,853L351,1001L513,1023Z" fill="#788a94" stroke="#788a94" stroke-width="1.51"/><path d="M500,172L375,209L517,278Z" fill="#053847" stroke="#053847" stroke-width="1.51"/><path d="M399,358L369,438L519,455Z" fill="#0c4959" stroke="#0c4959" stroke-width="1.51"/><path d="M369,438L362,535L519,455Z" fill="#0e4e5f" stroke="#0e4e5f" stroke-width="1.51"/><path d="M351,1001L380,1058L513,1023Z" fill="#627380" stroke="#627380" stroke-width="1.51"/><path d="M375,209L399,358L517,278Z" fill="#073c4b" stroke="#073c4b" stroke-width="1.51"/><path d="M430,16L319,145L500,172Z" fill="#0c333e" stroke="#0c333e" stroke-width="1.51"/><path d="M319,145L375,209L500,172Z" fill="#03303f" stroke="#03303f" stroke-width="1.51"/><path d="M298,87L319,145L430,16Z" fill="#11353b" stroke="#11353b" stroke-width="1.51"/><path d="M291,861L351,1001L453,853Z" fill="#788a93" stroke="#788a93" stroke-width="1.51"/><path d="M407,-204L236,-92L458,-81Z" fill="#2b523b" stroke="#2b523b" stroke-width="1.51"/><path d="M236,-92L270,-14L458,-81Z" fill="#274c3a" stroke="#274c3a" stroke-width="1.51"/><path d="M270,-14L430,16L458,-81Z" fill="#21443c" stroke="#21443c" stroke-width="1.51"/><path d="M413,794L291,861L453,853Z" fill="#68808b" stroke="#68808b" stroke-width="1.51"/><path d="M362,535L246,621L397,697Z" fill="#2f5f6c" stroke="#2f5f6c" stroke-width="1.51"/><path d="M375,209L294,344L399,358Z" fill="#063a49" stroke="#063a49" stroke-width="1.51"/><path d="M241,-167L236,-92L407,-204Z" fill="#325b39" stroke="#325b39" stroke-width="1.51"/><path d="M270,-14L298,87L430,16Z" fill="#1b3e3b" stroke="#1b3e3b" stroke-width="1.51"/><path d="M397,697L242,800L413,794Z" fill="#557480" stroke="#557480" stroke-width="1.51"/><path d="M242,800L291,861L413,794Z" fill="#668087" stroke="#668087" stroke-width="1.51"/><path d="M294,344L285,414L369,438Z" fill="#114753" stroke="#114753" stroke-width="1.51"/><path d="M260,1133L373,1175L380,1058Z" fill="#455663" stroke="#455663" stroke-width="1.51"/><path d="M373,1175L315,1239L389,1249Z" fill="#26384a" stroke="#26384a" stroke-width="1.51"/><path d="M222,773L242,800L397,697Z" fill="#59797f" stroke="#59797f" stroke-width="1.51"/><path d="M294,344L369,438L399,358Z" fill="#0a4151" stroke="#0a4151" stroke-width="1.51"/><path d="M246,621L222,773L397,697Z" fill="#4a7077" stroke="#4a7077" stroke-width="1.51"/><path d="M285,414L362,535L369,438Z" fill="#104b59" stroke="#104b59" stroke-width="1.51"/><path d="M195,221L294,344L375,209Z" fill="#113b45" stroke="#113b45" stroke-width="1.51"/><path d="M351,1001L260,1133L380,1058Z" fill="#576772" stroke="#576772" stroke-width="1.51"/><path d="M285,414L247,534L362,535Z" fill="#18525d" stroke="#18525d" stroke-width="1.51"/><path d="M247,534L246,621L362,535Z" fill="#245c65" stroke="#245c65" stroke-width="1.51"/><path d="M319,145L195,221L375,209Z" fill="#0d343e" stroke="#0d343e" stroke-width="1.51"/><path d="M29,1215L-39,1237L200,1234Z" fill="#3c5148" stroke="#3c5148" stroke-width="1.51"/><path d="M260,1133L315,1239L373,1175Z" fill="#354753" stroke="#354753" stroke-width="1.51"/><path d="M291,861L157,1010L351,1001Z" fill="#7e8f8f" stroke="#7e8f8f" stroke-width="1.51"/><path d="M157,1010L260,1133L351,1001Z" fill="#627477" stroke="#627477" stroke-width="1.51"/><path d="M30,-187L131,-144L241,-167Z" fill="#3e6d38" stroke="#3e6d38" stroke-width="1.51"/><path d="M230,597L246,621L247,534Z" fill="#2f6368" stroke="#2f6368" stroke-width="1.51"/><path d="M211,474L247,534L285,414Z" fill="#1e555b" stroke="#1e555b" stroke-width="1.51"/><path d="M167,882L157,1010L291,861Z" fill="#889c95" stroke="#889c95" stroke-width="1.51"/><path d="M260,1133L200,1234L315,1239Z" fill="#35474f" stroke="#35474f" stroke-width="1.51"/><path d="M298,87L195,221L319,145Z" fill="#0f333b" stroke="#0f333b" stroke-width="1.51"/><path d="M146,701L222,773L246,621Z" fill="#527877" stroke="#527877" stroke-width="1.51"/><path d="M157,1010L182,1132L260,1133Z" fill="#5a6c6b" stroke="#5a6c6b" stroke-width="1.51"/><path d="M270,-14L141,94L298,87Z" fill="#20433b" stroke="#20433b" stroke-width="1.51"/><path d="M141,94L195,221L298,87Z" fill="#173a3b" stroke="#173a3b" stroke-width="1.51"/><path d="M195,221L129,241L294,344Z" fill="#1b4447" stroke="#1b4447" stroke-width="1.51"/><path d="M211,474L285,414L294,344Z" fill="#194d54" stroke="#194d54" stroke-width="1.51"/><path d="M66,393L211,474L294,344Z" fill="#225354" stroke="#225354" stroke-width="1.51"/><path d="M129,241L66,393L294,344Z" fill="#214d4c" stroke="#214d4c" stroke-width="1.51"/><path d="M242,800L167,882L291,861Z" fill="#748d8c" stroke="#748d8c" stroke-width="1.51"/><path d="M182,1132L200,1234L260,1133Z" fill="#425558" stroke="#425558" stroke-width="1.51"/><path d="M236,-92L141,94L270,-14Z" fill="#284d3b" stroke="#284d3b" stroke-width="1.51"/><path d="M28,-12L141,94L236,-92Z" fill="#2e553a" stroke="#2e553a" stroke-width="1.51"/><path d="M131,-144L28,-12L236,-92Z" fill="#366139" stroke="#366139" stroke-width="1.51"/><path d="M131,-144L236,-92L241,-167Z" fill="#366239" stroke="#366239" stroke-width="1.51"/><path d="M230,597L146,701L246,621Z" fill="#426f6f" stroke="#426f6f" stroke-width="1.51"/><path d="M211,474L230,597L247,534Z" fill="#235d62" stroke="#235d62" stroke-width="1.51"/><path d="M222,773L167,882L242,800Z" fill="#6f8b87" stroke="#6f8b87" stroke-width="1.51"/><path d="M211,474L33,582L230,597Z" fill="#2e6663" stroke="#2e6663" stroke-width="1.51"/><path d="M33,582L146,701L230,597Z" fill="#45746e" stroke="#45746e" stroke-width="1.51"/><path d="M97,872L167,882L222,773Z" fill="#79948a" stroke="#79948a" stroke-width="1.51"/><path d="M146,701L97,872L222,773Z" fill="#6b8b82" stroke="#6b8b82" stroke-width="1.51"/><path d="M141,94L129,241L195,221Z" fill="#1c413e" stroke="#1c413e" stroke-width="1.51"/><path d="M66,393L33,582L211,474Z" fill="#2d645c" stroke="#2d645c" stroke-width="1.51"/><path d="M60,200L129,241L141,94Z" fill="#1f433e" stroke="#1f433e" stroke-width="1.51"/><path d="M35,828L97,872L146,701Z" fill="#749585" stroke="#749585" stroke-width="1.51"/><path d="M157,1010L76,1131L182,1132Z" fill="#5f736b" stroke="#5f736b" stroke-width="1.51"/><path d="M182,1132L76,1131L200,1234Z" fill="#485b58" stroke="#485b58" stroke-width="1.51"/><path d="M76,1131L29,1215L200,1234Z" fill="#435851" stroke="#435851" stroke-width="1.51"/><path d="M97,872L157,1010L167,882Z" fill="#8ea495" stroke="#8ea495" stroke-width="1.51"/><path d="M33,582L27,652L146,701Z" fill="#4f7d70" stroke="#4f7d70" stroke-width="1.51"/><path d="M97,872L5,962L157,1010Z" fill="#8fa592" stroke="#8fa592" stroke-width="1.51"/><path d="M7,256L66,393L129,241Z" fill="#285449" stroke="#285449" stroke-width="1.51"/><path d="M5,962L76,1131L157,1010Z" fill="#758a7b" stroke="#758a7b" stroke-width="1.51"/><path d="M5,962L-35,1050L76,1131Z" fill="#768d77" stroke="#768d77" stroke-width="1.51"/><path d="M14,96L60,200L141,94Z" fill="#23473a" stroke="#23473a" stroke-width="1.51"/><path d="M28,-12L14,96L141,94Z" fill="#2c533a" stroke="#2c533a" stroke-width="1.51"/><path d="M27,652L35,828L146,701Z" fill="#648b7b" stroke="#648b7b" stroke-width="1.51"/><path d="M30,-187L28,-12L131,-144Z" fill="#3d6c38" stroke="#3d6c38" stroke-width="1.51"/><path d="M60,200L7,256L129,241Z" fill="#254d42" stroke="#254d42" stroke-width="1.51"/><path d="M-53,532L33,582L66,393Z" fill="#366e5e" stroke="#366e5e" stroke-width="1.51"/><path d="M27,652L-19,811L35,828Z" fill="#729780" stroke="#729780" stroke-width="1.51"/><path d="M7,256L-53,340L66,393Z" fill="#2e5d4c" stroke="#2e5d4c" stroke-width="1.51"/><path d="M-47,394L-53,532L66,393Z" fill="#356a58" stroke="#356a58" stroke-width="1.51"/><path d="M35,828L5,962L97,872Z" fill="#8ea891" stroke="#8ea891" stroke-width="1.51"/><path d="M-31,48L14,96L28,-12Z" fill="#325a3a" stroke="#325a3a" stroke-width="1.51"/><path d="M-83,-62L28,-12L30,-187Z" fill="#3f6f38" stroke="#3f6f38" stroke-width="1.51"/><path d="M-35,1050L29,1215L76,1131Z" fill="#5b7161" stroke="#5b7161" stroke-width="1.51"/><path d="M-22,-202L-83,-62L30,-187Z" fill="#467b36" stroke="#467b36" stroke-width="1.51"/><path d="M14,96L-66,214L60,200Z" fill="#274d3d" stroke="#274d3d" stroke-width="1.51"/><path d="M-53,340L-47,394L66,393Z" fill="#326351" stroke="#326351" stroke-width="1.51"/><path d="M-100,689L-19,811L27,652Z" fill="#6a9479" stroke="#6a9479" stroke-width="1.51"/><path d="M-35,1050L-118,1156L29,1215Z" fill="#5e765f" stroke="#5e765f" stroke-width="1.51"/><path d="M-19,811L5,962L35,828Z" fill="#8ca98e" stroke="#8ca98e" stroke-width="1.51"/><path d="M-66,214L7,256L60,200Z" fill="#2a5342" stroke="#2a5342" stroke-width="1.51"/><path d="M-19,811L-98,893L5,962Z" fill="#95b291" stroke="#95b291" stroke-width="1.51"/><path d="M-118,1156L-39,1237L29,1215Z" fill="#4c644f" stroke="#4c644f" stroke-width="1.51"/><path d="M-53,532L27,652L33,582Z" fill="#467c69" stroke="#467c69" stroke-width="1.51"/><path d="M-53,532L-100,689L27,652Z" fill="#53866d" stroke="#53866d" stroke-width="1.51"/><path d="M-83,-62L-31,48L28,-12Z" fill="#386539" stroke="#386539" stroke-width="1.51"/><path d="M-100,689L-123,735L-19,811Z" fill="#759e7d" stroke="#759e7d" stroke-width="1.51"/><path d="M-31,48L-66,214L14,96Z" fill="#2b523a" stroke="#2b523a" stroke-width="1.51"/><path d="M-66,214L-53,340L7,256Z" fill="#2f5b46" stroke="#2f5b46" stroke-width="1.51"/><path d="M-98,893L-35,1050L5,962Z" fill="#93ad8c" stroke="#93ad8c" stroke-width="1.51"/><path d="M-98,893L-184,1020L-35,1050Z" fill="#92ad86" stroke="#92ad86" stroke-width="1.51"/><path d="M-83,-62L-144,-32L-31,48Z" fill="#3d6c38" stroke="#3d6c38" stroke-width="1.51"/><path d="M-189,54L-66,214L-31,48Z" fill="#325b3a" stroke="#325b3a" stroke-width="1.51"/><path d="M-160,-155L-83,-62L-22,-202Z" fill="#497f35" stroke="#497f35" stroke-width="1.51"/><path d="M-123,735L-98,893L-19,811Z" fill="#86a986" stroke="#86a986" stroke-width="1.51"/><path d="M-189,54L-225,126L-66,214Z" fill="#335d3a" stroke="#335d3a" stroke-width="1.51"/><path d="M-175,364L-232,504L-53,532Z" fill="#427b5a" stroke="#427b5a" stroke-width="1.51"/><path d="M-175,364L-53,532L-47,394Z" fill="#3b7157" stroke="#3b7157" stroke-width="1.51"/><path d="M-118,1156L-145,1211L-39,1237Z" fill="#50694f" stroke="#50694f" stroke-width="1.51"/><path d="M-144,-32L-189,54L-31,48Z" fill="#3b6a38" stroke="#3b6a38" stroke-width="1.51"/><path d="M-66,214L-175,364L-53,340Z" fill="#35654a" stroke="#35654a" stroke-width="1.51"/><path d="M-184,1020L-118,1156L-35,1050Z" fill="#77926f" stroke="#77926f" stroke-width="1.51"/><path d="M-232,504L-100,689L-53,532Z" fill="#4d8666" stroke="#4d8666" stroke-width="1.51"/><path d="M-226,256L-175,364L-66,214Z" fill="#386747" stroke="#386747" stroke-width="1.51"/><path d="M-53,340L-175,364L-47,394Z" fill="#386a50" stroke="#386a50" stroke-width="1.51"/><path d="M-232,504L-153,712L-100,689Z" fill="#5f946e" stroke="#5f946e" stroke-width="1.51"/><path d="M-203,933L-184,1020L-98,893Z" fill="#a3c091" stroke="#a3c091" stroke-width="1.51"/><path d="M-225,126L-226,256L-66,214Z" fill="#35613f" stroke="#35613f" stroke-width="1.51"/><path d="M-123,735L-203,933L-98,893Z" fill="#94b78c" stroke="#94b78c" stroke-width="1.51"/><path d="M-160,-155L-144,-32L-83,-62Z" fill="#467b36" stroke="#467b36" stroke-width="1.51"/><path d="M-153,712L-203,933L-123,735Z" fill="#87af83" stroke="#87af83" stroke-width="1.51"/><path d="M-184,1020L-233,1134L-118,1156Z" fill="#739067" stroke="#739067" stroke-width="1.51"/><path d="M-153,712L-123,735L-100,689Z" fill="#709d78" stroke="#709d78" stroke-width="1.51"/><path d="M-233,1134L-145,1211L-118,1156Z" fill="#5f7a57" stroke="#5f7a57" stroke-width="1.51"/><path d="M-160,-155L-189,54L-144,-32Z" fill="#447936" stroke="#447936" stroke-width="1.51"/><path d="M-232,504L-203,933L-153,712Z" fill="#77a679" stroke="#77a679" stroke-width="1.51"/><path d="M-225,126L-189,54L-160,-155Z" fill="#417337" stroke="#417337" stroke-width="1.51"/><path d="M-226,256L-232,504L-175,364Z" fill="#417750" stroke="#417750" stroke-width="1.51"/><path d="M-203,933L-233,1134L-184,1020Z" fill="#8cab7b" stroke="#8cab7b" stroke-width="1.51"/><path d="M-232,504L-233,1134L-203,933Z" fill="#9cc18c" stroke="#9cc18c" stroke-width="1.51"/><path d="M-232,504L-226,256L-225,126Z" fill="#3e7048" stroke="#3e7048" stroke-width="1.51"/></svg>