<svg xmlns="http://www.w3.org/2000/svg" width="1920" height="1080"><path d="M200,1234L-39,1237L389,1249Z" fill="#7ca26c" stroke="#7ca26c" stroke-width="1.51"/><path d="M-22,-202L407,-204L556,-220Z" fill="#eef9c2" stroke="#eef9c2" stroke-width="1.51"/><path d="M389,1249L-39,1237L1110,1301Z" fill="#699861" stroke="#699861" stroke-width="1.51"/><path d="M637,1255L389,1249L1110,1301Z" fill="#579159" stroke="#579159" stroke-width="1.51"/><path d="M855,1261L637,1255L1110,1301Z" fill="#498a54" stroke="#498a54" stroke-width="1.51"/><path d="M1087,-226L1231,-194L1573,-210Z" fill="#a3d39a" stroke="#a3d39a" stroke-width="1.51"/><path d="M1414,1279L1110,1301L1682,1316Z" fill="#1a6f3e" stroke="#1a6f3e" stroke-width="1.51"/><path d="M1573,-210L1917,-186L2025,-179Z" fill="#8ab285" stroke="#8ab285" stroke-width="1.51"/><path d="M2012,582L2056,672L2066,511Z" fill="#3a874f" stroke="#3a874f" stroke-width="1.51"/><path d="M2064,1048L2085,1148L2098,895Z" fill="#096135" stroke="#096135" stroke-width="1.51"/><path d="M2025,-179L2043,-132L2104,-109Z" fill="#83a479" stroke="#83a479" stroke-width="1.51"/><path d="M1963,12L2075,216L2112,6Z" fill="#78a069" stroke="#78a069" stroke-width="1.51"/><path d="M2075,216L2103,245L2112,6Z" fill="#719a64" stroke="#719a64" stroke-width="1.51"/><path d="M2104,-109L2036,-81L2112,6Z" fill="#80a171" stroke="#80a171" stroke-width="1.51"/><path d="M1926,1292L1879,1312L2133,1307Z" fill="#00512d" stroke="#00512d" stroke-width="1.51"/><path d="M2085,1148L2037,1181L2133,1307Z" fill="#00532e" stroke="#00532e" stroke-width="1.51"/><path d="M2098,895L2085,1148L2133,1307Z" fill="#015a32" stroke="#015a32" stroke-width="1.51"/><path d="M2056,672L2072,753L2146,395Z" fill="#37834c" stroke="#37834c" stroke-width="1.51"/><path d="M2066,511L2056,672L2146,395Z" fill="#428851" stroke="#428851" stroke-width="1.51"/><path d="M2072,753L2098,895L2146,395Z" fill="#2b7d48" stroke="#2b7d48" stroke-width="1.51"/><path d="M2103,245L1937,313L2146,395Z" fill="#5f955d" stroke="#5f955d" stroke-width="1.51"/><path d="M1937,313L2001,469L2146,395Z" fill="#56935a" stroke="#56935a" stroke-width="1.51"/><path d="M2001,469L2066,511L2146,395Z" fill="#4c8d56" stroke="#4c8d56" stroke-width="1.51"/><path d="M2104,-109L2112,6L2146,395Z" fill="#749a66" stroke="#749a66" stroke-width="1.51"/><path d="M2112,6L2103,245L2146,395Z" fill="#699660" stroke="#699660" stroke-width="1.51"/><path d="M2098,895L2133,1307L2146,395Z" fill="#176c3b" stroke="#176c3b" stroke-width="1.51"/><path d="M2012,582L2007,617L2056,672Z" fill="#35854d" stroke="#35854d" stroke-width="1.51"/><path d="M1963,12L1972,211L2075,216Z" fill="#74a167" stroke="#74a167" stroke-width="1.51"/><path d="M1989,924L2064,1048L2098,895Z" fill="#106937" stroke="#106937" stroke-width="1.51"/><path d="M2037,1181L1926,1292L2133,1307Z" fill="#00522e" stroke="#00522e" stroke-width="1.51"/><path d="M2072,753L1940,818L2098,895Z" fill="#1c7540" stroke="#1c7540" stroke-width="1.51"/><path d="M1940,818L1989,924L2098,895Z" fill="#17713d" stroke="#17713d" stroke-width="1.51"/><path d="M2075,216L1937,313L2103,245Z" fill="#679a60" stroke="#679a60" stroke-width="1.51"/><path d="M2036,-81L1963,12L2112,6Z" fill="#7fa46f" stroke="#7fa46f" stroke-width="1.51"/><path d="M1972,211L1937,313L2075,216Z" fill="#699d63" stroke="#699d63" stroke-width="1.51"/><path d="M2043,-132L2036,-81L2104,-109Z" fill="#82a376" stroke="#82a376" stroke-width="1.51"/><path d="M2064,1048L2037,1181L2085,1148Z" fill="#005c32" stroke="#005c32" stroke-width="1.51"/><path d="M1925,1015L2037,1181L2064,1048Z" fill="#046235" stroke="#046235" stroke-width="1.51"/><path d="M1989,924L1925,1015L2064,1048Z" fill="#0d6938" stroke="#0d6938" stroke-width="1.51"/><path d="M2056,672L1940,818L2072,753Z" fill="#227d44" stroke="#227d44" stroke-width="1.51"/><path d="M2001,469L2012,582L2066,511Z" fill="#448c53" stroke="#448c53" stroke-width="1.51"/><path d="M1925,1015L1859,1145L2037,1181Z" fill="#016435" stroke="#016435" stroke-width="1.51"/><path d="M2007,617L1940,818L2056,672Z" fill="#298248" stroke="#298248" stroke-width="1.51"/><path d="M1963,12L1863,73L1972,211Z" fill="#7aa76c" stroke="#7aa76c" stroke-width="1.51"/><path d="M1910,593L1940,818L2007,617Z" fill="#2e874b" stroke="#2e874b" stroke-width="1.51"/><path d="M1917,-186L2036,-81L2043,-132Z" fill="#84a87b" stroke="#84a87b" stroke-width="1.51"/><path d="M2025,-179L1917,-186L2043,-132Z" fill="#85a87e" stroke="#85a87e" stroke-width="1.51"/><path d="M1859,1145L1926,1292L2037,1181Z" fill="#005b32" stroke="#005b32" stroke-width="1.51"/><path d="M1917,-186L1963,12L2036,-81Z" fill="#84a976" stroke="#84a976" stroke-width="1.51"/><path d="M1937,313L1906,322L2001,469Z" fill="#5c995d" stroke="#5c995d" stroke-width="1.51"/><path d="M2001,469L1910,593L2012,582Z" fill="#418e54" stroke="#418e54" stroke-width="1.51"/><path d="M1209,1279L1110,1301L1414,1279Z" fill="#247a44" stroke="#247a44" stroke-width="1.51"/><path d="M1917,-186L1816,-118L1963,12Z" fill="#86ae79" stroke="#86ae79" stroke-width="1.51"/><path d="M1863,73L1836,130L1972,211Z" fill="#78a96a" stroke="#78a96a" stroke-width="1.51"/><path d="M1906,322L1827,398L2001,469Z" fill="#599b5d" stroke="#599b5d" stroke-width="1.51"/><path d="M1910,593L2007,617L2012,582Z" fill="#3a8a50" stroke="#3a8a50" stroke-width="1.51"/><path d="M1573,-210L1708,-134L1917,-186Z" fill="#8fb886" stroke="#8fb886" stroke-width="1.51"/><path d="M1910,593L1776,689L1940,818Z" fill="#2b8a4b" stroke="#2b8a4b" stroke-width="1.51"/><path d="M1895,967L1925,1015L1989,924Z" fill="#106e3a" stroke="#106e3a" stroke-width="1.51"/><path d="M1827,398L1910,593L2001,469Z" fill="#4c9559" stroke="#4c9559" stroke-width="1.51"/><path d="M1828,608L1776,689L1910,593Z" fill="#389151" stroke="#389151" stroke-width="1.51"/><path d="M1940,818L1895,967L1989,924Z" fill="#16733d" stroke="#16733d" stroke-width="1.51"/><path d="M1776,689L1805,825L1940,818Z" fill="#238547" stroke="#238547" stroke-width="1.51"/><path d="M1816,-118L1793,-24L1963,12Z" fill="#87b075" stroke="#87b075" stroke-width="1.51"/><path d="M1906,322L1937,313L1972,211Z" fill="#669f62" stroke="#669f62" stroke-width="1.51"/><path d="M1836,130L1906,322L1972,211Z" fill="#6ea466" stroke="#6ea466" stroke-width="1.51"/><path d="M1803,858L1895,967L1940,818Z" fill="#197a3f" stroke="#197a3f" stroke-width="1.51"/><path d="M1793,-24L1863,73L1963,12Z" fill="#81ad71" stroke="#81ad71" stroke-width="1.51"/><path d="M1827,398L1828,608L1910,593Z" fill="#469657" stroke="#469657" stroke-width="1.51"/><path d="M1708,-134L1816,-118L1917,-186Z" fill="#8ab381" stroke="#8ab381" stroke-width="1.51"/><path d="M1859,1145L1879,1312L1926,1292Z" fill="#005b32" stroke="#005b32" stroke-width="1.51"/><path d="M1805,825L1803,858L1940,818Z" fill="#1d8043" stroke="#1d8043" stroke-width="1.51"/><path d="M1827,398L1740,456L1828,608Z" fill="#4f9c5b" stroke="#4f9c5b" stroke-width="1.51"/><path d="M556,-220L615,-208L1087,-226Z" fill="#ceebb3" stroke="#ceebb3" stroke-width="1.51"/><path d="M1708,1041L1859,1145L1895,967Z" fill="#0b6f3a" stroke="#0b6f3a" stroke-width="1.51"/><path d="M1836,130L1723,337L1906,322Z" fill="#6da766" stroke="#6da766" stroke-width="1.51"/><path d="M1895,967L1859,1145L1925,1015Z" fill="#096c38" stroke="#096c38" stroke-width="1.51"/><path d="M1803,858L1779,879L1895,967Z" fill="#197a3f" stroke="#197a3f" stroke-width="1.51"/><path d="M1723,337L1827,398L1906,322Z" fill="#62a361" stroke="#62a361" stroke-width="1.51"/><path d="M1682,163L1723,337L1836,130Z" fill="#75ad6a" stroke="#75ad6a" stroke-width="1.51"/><path d="M1859,1145L1674,1182L1879,1312Z" fill="#046235" stroke="#046235" stroke-width="1.51"/><path d="M1674,1182L1682,1316L1879,1312Z" fill="#076034" stroke="#076034" stroke-width="1.51"/><path d="M1779,879L1708,1041L1895,967Z" fill="#15763d" stroke="#15763d" stroke-width="1.51"/><path d="M1740,456L1730,586L1828,608Z" fill="#479a59" stroke="#479a59" stroke-width="1.51"/><path d="M1793,-24L1769,36L1863,73Z" fill="#83b172" stroke="#83b172" stroke-width="1.51"/><path d="M1776,689L1737,735L1805,825Z" fill="#288c4a" stroke="#288c4a" stroke-width="1.51"/><path d="M1708,1041L1690,1110L1859,1145Z" fill="#0b6f3a" stroke="#0b6f3a" stroke-width="1.51"/><path d="M1769,36L1836,130L1863,73Z" fill="#7fae6f" stroke="#7fae6f" stroke-width="1.51"/><path d="M1690,1110L1674,1182L1859,1145Z" fill="#086b39" stroke="#086b39" stroke-width="1.51"/><path d="M1769,36L1682,163L1836,130Z" fill="#7fb06f" stroke="#7fb06f" stroke-width="1.51"/><path d="M1660,936L1708,1041L1779,879Z" fill="#1a7b3f" stroke="#1a7b3f" stroke-width="1.51"/><path d="M1730,586L1776,689L1828,608Z" fill="#3b9452" stroke="#3b9452" stroke-width="1.51"/><path d="M1723,337L1740,456L1827,398Z" fill="#5da360" stroke="#5da360" stroke-width="1.51"/><path d="M1708,-134L1793,-24L1816,-118Z" fill="#8bb57c" stroke="#8bb57c" stroke-width="1.51"/><path d="M1779,879L1803,858L1805,825Z" fill="#1e8043" stroke="#1e8043" stroke-width="1.51"/><path d="M1737,735L1779,879L1805,825Z" fill="#238546" stroke="#238546" stroke-width="1.51"/><path d="M1730,586L1675,647L1776,689Z" fill="#3b9552" stroke="#3b9552" stroke-width="1.51"/><path d="M1737,735L1596,835L1779,879Z" fill="#268847" stroke="#268847" stroke-width="1.51"/><path d="M1618,-33L1769,36L1793,-24Z" fill="#89b676" stroke="#89b676" stroke-width="1.51"/><path d="M1708,-134L1618,-33L1793,-24Z" fill="#8db87a" stroke="#8db87a" stroke-width="1.51"/><path d="M1596,835L1660,936L1779,879Z" fill="#218343" stroke="#218343" stroke-width="1.51"/><path d="M1675,647L1737,735L1776,689Z" fill="#33924f" stroke="#33924f" stroke-width="1.51"/><path d="M1723,337L1641,424L1740,456Z" fill="#5fa661" stroke="#5fa661" stroke-width="1.51"/><path d="M1578,104L1682,163L1769,36Z" fill="#83b571" stroke="#83b571" stroke-width="1.51"/><path d="M1618,-33L1578,104L1769,36Z" fill="#89b875" stroke="#89b875" stroke-width="1.51"/><path d="M1682,163L1576,222L1723,337Z" fill="#75b06a" stroke="#75b06a" stroke-width="1.51"/><path d="M1576,222L1575,318L1723,337Z" fill="#70af69" stroke="#70af69" stroke-width="1.51"/><path d="M1663,596L1675,647L1730,586Z" fill="#419956" stroke="#419956" stroke-width="1.51"/><path d="M1663,596L1730,586L1740,456Z" fill="#499d5a" stroke="#499d5a" stroke-width="1.51"/><path d="M1641,424L1663,596L1740,456Z" fill="#53a25d" stroke="#53a25d" stroke-width="1.51"/><path d="M1675,647L1549,791L1737,735Z" fill="#30934f" stroke="#30934f" stroke-width="1.51"/><path d="M1549,791L1596,835L1737,735Z" fill="#2b8f4b" stroke="#2b8f4b" stroke-width="1.51"/><path d="M1674,1182L1599,1234L1682,1316Z" fill="#0d6636" stroke="#0d6636" stroke-width="1.51"/><path d="M1660,936L1618,1047L1708,1041Z" fill="#18793e" stroke="#18793e" stroke-width="1.51"/><path d="M1575,318L1641,424L1723,337Z" fill="#67ab65" stroke="#67ab65" stroke-width="1.51"/><path d="M1557,-190L1618,-33L1708,-134Z" fill="#91bd82" stroke="#91bd82" stroke-width="1.51"/><path d="M1573,-210L1557,-190L1708,-134Z" fill="#93be89" stroke="#93be89" stroke-width="1.51"/><path d="M1618,1047L1690,1110L1708,1041Z" fill="#13743d" stroke="#13743d" stroke-width="1.51"/><path d="M1641,424L1554,596L1663,596Z" fill="#4ea15c" stroke="#4ea15c" stroke-width="1.51"/><path d="M1599,1234L1414,1279L1682,1316Z" fill="#126837" stroke="#126837" stroke-width="1.51"/><path d="M1618,1047L1674,1182L1690,1110Z" fill="#0f723b" stroke="#0f723b" stroke-width="1.51"/><path d="M1618,1047L1599,1234L1674,1182Z" fill="#0f703a" stroke="#0f703a" stroke-width="1.51"/><path d="M1554,596L1549,791L1675,647Z" fill="#3b9a53" stroke="#3b9a53" stroke-width="1.51"/><path d="M1578,104L1576,222L1682,163Z" fill="#80b670" stroke="#80b670" stroke-width="1.51"/><path d="M1551,994L1618,1047L1660,936Z" fill="#1c7d40" stroke="#1c7d40" stroke-width="1.51"/><path d="M1663,596L1554,596L1675,647Z" fill="#439c56" stroke="#439c56" stroke-width="1.51"/><path d="M1231,-194L1353,-146L1573,-210Z" fill="#9ecc93" stroke="#9ecc93" stroke-width="1.51"/><path d="M1476,1195L1599,1234L1618,1047Z" fill="#14733c" stroke="#14733c" stroke-width="1.51"/><path d="M1596,835L1551,994L1660,936Z" fill="#228342" stroke="#228342" stroke-width="1.51"/><path d="M1545,282L1575,318L1576,222Z" fill="#75b36b" stroke="#75b36b" stroke-width="1.51"/><path d="M1482,1218L1414,1279L1599,1234Z" fill="#166e3b" stroke="#166e3b" stroke-width="1.51"/><path d="M1575,318L1465,379L1641,424Z" fill="#68ae66" stroke="#68ae66" stroke-width="1.51"/><path d="M1465,379L1554,596L1641,424Z" fill="#5ca962" stroke="#5ca962" stroke-width="1.51"/><path d="M1457,624L1549,791L1554,596Z" fill="#3f9e56" stroke="#3f9e56" stroke-width="1.51"/><path d="M1466,846L1551,994L1596,835Z" fill="#278946" stroke="#278946" stroke-width="1.51"/><path d="M1551,994L1476,1195L1618,1047Z" fill="#197a3f" stroke="#197a3f" stroke-width="1.51"/><path d="M1474,-31L1578,104L1618,-33Z" fill="#8ebd78" stroke="#8ebd78" stroke-width="1.51"/><path d="M1557,-190L1474,-31L1618,-33Z" fill="#94c081" stroke="#94c081" stroke-width="1.51"/><path d="M1465,379L1365,533L1554,596Z" fill="#5bad64" stroke="#5bad64" stroke-width="1.51"/><path d="M1436,-101L1474,-31L1557,-190Z" fill="#97c586" stroke="#97c586" stroke-width="1.51"/><path d="M1353,-146L1557,-190L1573,-210Z" fill="#99c58e" stroke="#99c58e" stroke-width="1.51"/><path d="M1474,-31L1446,18L1578,104Z" fill="#8fc17a" stroke="#8fc17a" stroke-width="1.51"/><path d="M1473,147L1576,222L1578,104Z" fill="#83ba71" stroke="#83ba71" stroke-width="1.51"/><path d="M1549,791L1466,846L1596,835Z" fill="#2d904b" stroke="#2d904b" stroke-width="1.51"/><path d="M1476,1195L1482,1218L1599,1234Z" fill="#15703b" stroke="#15703b" stroke-width="1.51"/><path d="M1377,432L1365,533L1465,379Z" fill="#65b469" stroke="#65b469" stroke-width="1.51"/><path d="M1375,1047L1476,1195L1551,994Z" fill="#1e7f42" stroke="#1e7f42" stroke-width="1.51"/><path d="M1365,533L1457,624L1554,596Z" fill="#4ea85f" stroke="#4ea85f" stroke-width="1.51"/><path d="M1545,282L1465,379L1575,318Z" fill="#70b36a" stroke="#70b36a" stroke-width="1.51"/><path d="M1446,18L1473,147L1578,104Z" fill="#8bc077" stroke="#8bc077" stroke-width="1.51"/><path d="M1473,147L1545,282L1576,222Z" fill="#7db86f" stroke="#7db86f" stroke-width="1.51"/><path d="M1466,846L1400,915L1551,994Z" fill="#298a47" stroke="#298a47" stroke-width="1.51"/><path d="M1473,147L1418,191L1545,282Z" fill="#80bc72" stroke="#80bc72" stroke-width="1.51"/><path d="M1375,685L1466,846L1549,791Z" fill="#349951" stroke="#349951" stroke-width="1.51"/><path d="M1457,624L1375,685L1549,791Z" fill="#3da056" stroke="#3da056" stroke-width="1.51"/><path d="M1353,-146L1436,-101L1557,-190Z" fill="#9ac88c" stroke="#9ac88c" stroke-width="1.51"/><path d="M1400,915L1375,1047L1551,994Z" fill="#258746" stroke="#258746" stroke-width="1.51"/><path d="M1418,191L1465,379L1545,282Z" fill="#78b96e" stroke="#78b96e" stroke-width="1.51"/><path d="M1418,191L1336,296L1465,379Z" fill="#7bbd71" stroke="#7bbd71" stroke-width="1.51"/><path d="M1375,685L1344,759L1466,846Z" fill="#399f55" stroke="#399f55" stroke-width="1.51"/><path d="M1446,18L1387,23L1473,147Z" fill="#90c47c" stroke="#90c47c" stroke-width="1.51"/><path d="M1387,23L1418,191L1473,147Z" fill="#8cc379" stroke="#8cc379" stroke-width="1.51"/><path d="M1375,1047L1323,1169L1476,1195Z" fill="#1e8043" stroke="#1e8043" stroke-width="1.51"/><path d="M1476,1195L1414,1279L1482,1218Z" fill="#19723d" stroke="#19723d" stroke-width="1.51"/><path d="M1323,1169L1414,1279L1476,1195Z" fill="#1c7740" stroke="#1c7740" stroke-width="1.51"/><path d="M1387,23L1446,18L1474,-31Z" fill="#95c67f" stroke="#95c67f" stroke-width="1.51"/><path d="M1436,-101L1387,23L1474,-31Z" fill="#98c781" stroke="#98c781" stroke-width="1.51"/><path d="M1336,296L1377,432L1465,379Z" fill="#71ba6d" stroke="#71ba6d" stroke-width="1.51"/><path d="M1344,759L1400,915L1466,846Z" fill="#32974f" stroke="#32974f" stroke-width="1.51"/><path d="M1365,533L1375,685L1457,624Z" fill="#4daa5f" stroke="#4daa5f" stroke-width="1.51"/><path d="M1387,23L1258,89L1418,191Z" fill="#92c97e" stroke="#92c97e" stroke-width="1.51"/><path d="M1312,-65L1387,23L1436,-101Z" fill="#9bcb85" stroke="#9bcb85" stroke-width="1.51"/><path d="M1353,-146L1312,-65L1436,-101Z" fill="#9ecd8b" stroke="#9ecd8b" stroke-width="1.51"/><path d="M1336,296L1294,415L1377,432Z" fill="#72bd70" stroke="#72bd70" stroke-width="1.51"/><path d="M1344,759L1259,784L1400,915Z" fill="#379d54" stroke="#379d54" stroke-width="1.51"/><path d="M1259,784L1287,947L1400,915Z" fill="#349850" stroke="#349850" stroke-width="1.51"/><path d="M1287,947L1375,1047L1400,915Z" fill="#2b8e4b" stroke="#2b8e4b" stroke-width="1.51"/><path d="M1248,225L1336,296L1418,191Z" fill="#84c477" stroke="#84c477" stroke-width="1.51"/><path d="M1258,89L1248,225L1418,191Z" fill="#8dca7c" stroke="#8dca7c" stroke-width="1.51"/><path d="M1323,1169L1209,1279L1414,1279Z" fill="#207a43" stroke="#207a43" stroke-width="1.51"/><path d="M1365,533L1227,612L1375,685Z" fill="#52af63" stroke="#52af63" stroke-width="1.51"/><path d="M1294,415L1258,517L1365,533Z" fill="#64b86c" stroke="#64b86c" stroke-width="1.51"/><path d="M1294,415L1365,533L1377,432Z" fill="#66b76b" stroke="#66b76b" stroke-width="1.51"/><path d="M1312,-65L1258,89L1387,23Z" fill="#9ace84" stroke="#9ace84" stroke-width="1.51"/><path d="M1255,1175L1209,1279L1323,1169Z" fill="#248146" stroke="#248146" stroke-width="1.51"/><path d="M1248,986L1255,1175L1323,1169Z" fill="#26894a" stroke="#26894a" stroke-width="1.51"/><path d="M1258,517L1227,612L1365,533Z" fill="#5bb669" stroke="#5bb669" stroke-width="1.51"/><path d="M1248,986L1323,1169L1375,1047Z" fill="#278a49" stroke="#278a49" stroke-width="1.51"/><path d="M1287,947L1248,986L1375,1047Z" fill="#2c904c" stroke="#2c904c" stroke-width="1.51"/><path d="M1227,612L1344,759L1375,685Z" fill="#46ab5e" stroke="#46ab5e" stroke-width="1.51"/><path d="M1227,612L1259,784L1344,759Z" fill="#43ab5d" stroke="#43ab5d" stroke-width="1.51"/><path d="M1248,986L1172,1072L1255,1175Z" fill="#2c8e4d" stroke="#2c8e4d" stroke-width="1.51"/><path d="M1231,-194L1312,-65L1353,-146Z" fill="#a1d292" stroke="#a1d292" stroke-width="1.51"/><path d="M1230,285L1294,415L1336,296Z" fill="#7bc275" stroke="#7bc275" stroke-width="1.51"/><path d="M1248,225L1230,285L1336,296Z" fill="#83c778" stroke="#83c778" stroke-width="1.51"/><path d="M615,-208L858,-158L1087,-226Z" fill="#c5e6ad" stroke="#c5e6ad" stroke-width="1.51"/><path d="M1175,-99L1258,89L1312,-65Z" fill="#a1d489" stroke="#a1d489" stroke-width="1.51"/><path d="M1231,-194L1175,-99L1312,-65Z" fill="#a4d593" stroke="#a4d593" stroke-width="1.51"/><path d="M1259,784L1120,854L1287,947Z" fill="#3c9f56" stroke="#3c9f56" stroke-width="1.51"/><path d="M1227,612L1111,672L1259,784Z" fill="#4eb063" stroke="#4eb063" stroke-width="1.51"/><path d="M1111,672L1105,721L1259,784Z" fill="#4db062" stroke="#4db062" stroke-width="1.51"/><path d="M1120,854L1248,986L1287,947Z" fill="#379952" stroke="#379952" stroke-width="1.51"/><path d="M1158,422L1258,517L1294,415Z" fill="#6ebf70" stroke="#6ebf70" stroke-width="1.51"/><path d="M1230,285L1158,422L1294,415Z" fill="#79c475" stroke="#79c475" stroke-width="1.51"/><path d="M1198,586L1227,612L1258,517Z" fill="#5db86a" stroke="#5db86a" stroke-width="1.51"/><path d="M1175,-99L1130,105L1258,89Z" fill="#a1d589" stroke="#a1d589" stroke-width="1.51"/><path d="M1136,169L1248,225L1258,89Z" fill="#94cf81" stroke="#94cf81" stroke-width="1.51"/><path d="M1120,854L1075,926L1248,986Z" fill="#3f9d55" stroke="#3f9d55" stroke-width="1.51"/><path d="M1130,105L1136,169L1258,89Z" fill="#9bd385" stroke="#9bd385" stroke-width="1.51"/><path d="M1105,721L1120,854L1259,784Z" fill="#47aa5e" stroke="#47aa5e" stroke-width="1.51"/><path d="M1158,422L1198,586L1258,517Z" fill="#68bd6f" stroke="#68bd6f" stroke-width="1.51"/><path d="M315,1239L200,1234L389,1249Z" fill="#769f68" stroke="#769f68" stroke-width="1.51"/><path d="M1085,1145L1209,1279L1255,1175Z" fill="#2d854a" stroke="#2d854a" stroke-width="1.51"/><path d="M1172,1072L1085,1145L1255,1175Z" fill="#308c4d" stroke="#308c4d" stroke-width="1.51"/><path d="M1157,263L1158,422L1230,285Z" fill="#84c97a" stroke="#84c97a" stroke-width="1.51"/><path d="M1075,926L1172,1072L1248,986Z" fill="#399752" stroke="#399752" stroke-width="1.51"/><path d="M1157,263L1230,285L1248,225Z" fill="#89cb7c" stroke="#89cb7c" stroke-width="1.51"/><path d="M1136,169L1157,263L1248,225Z" fill="#90ce80" stroke="#90ce80" stroke-width="1.51"/><path d="M1085,1145L1110,1301L1209,1279Z" fill="#31834b" stroke="#31834b" stroke-width="1.51"/><path d="M1198,586L1111,672L1227,612Z" fill="#5ab668" stroke="#5ab668" stroke-width="1.51"/><path d="M1087,-226L1175,-99L1231,-194Z" fill="#acd99d" stroke="#acd99d" stroke-width="1.51"/><path d="M1085,1145L1047,1221L1110,1301Z" fill="#36874e" stroke="#36874e" stroke-width="1.51"/><path d="M1105,721L1071,801L1120,854Z" fill="#4dac60" stroke="#4dac60" stroke-width="1.51"/><path d="M979,-18L1130,105L1175,-99Z" fill="#abda8f" stroke="#abda8f" stroke-width="1.51"/><path d="M1158,422L991,508L1198,586Z" fill="#70c173" stroke="#70c173" stroke-width="1.51"/><path d="M1050,646L1111,672L1198,586Z" fill="#5eb96a" stroke="#5eb96a" stroke-width="1.51"/><path d="M991,508L1050,646L1198,586Z" fill="#69be70" stroke="#69be70" stroke-width="1.51"/><path d="M989,469L991,508L1158,422Z" fill="#7bc779" stroke="#7bc779" stroke-width="1.51"/><path d="M1157,263L979,338L1158,422Z" fill="#88cc7d" stroke="#88cc7d" stroke-width="1.51"/><path d="M1075,926L1006,1012L1172,1072Z" fill="#409955" stroke="#409955" stroke-width="1.51"/><path d="M1043,-134L979,-18L1175,-99Z" fill="#b2dd98" stroke="#b2dd98" stroke-width="1.51"/><path d="M1087,-226L1043,-134L1175,-99Z" fill="#b0dc9d" stroke="#b0dc9d" stroke-width="1.51"/><path d="M1006,1012L1085,1145L1172,1072Z" fill="#3b9453" stroke="#3b9453" stroke-width="1.51"/><path d="M979,-18L972,4L1130,105Z" fill="#aedc91" stroke="#aedc91" stroke-width="1.51"/><path d="M1136,169L1050,205L1157,263Z" fill="#96d183" stroke="#96d183" stroke-width="1.51"/><path d="M1050,205L979,338L1157,263Z" fill="#94d182" stroke="#94d182" stroke-width="1.51"/><path d="M979,338L989,469L1158,422Z" fill="#84ca7c" stroke="#84ca7c" stroke-width="1.51"/><path d="M1006,1012L1003,1127L1085,1145Z" fill="#409555" stroke="#409555" stroke-width="1.51"/><path d="M1130,105L1050,205L1136,169Z" fill="#9dd486" stroke="#9dd486" stroke-width="1.51"/><path d="M972,4L1050,205L1130,105Z" fill="#a6d98c" stroke="#a6d98c" stroke-width="1.51"/><path d="M1071,801L1075,926L1120,854Z" fill="#49a65c" stroke="#49a65c" stroke-width="1.51"/><path d="M1047,1221L855,1261L1110,1301Z" fill="#3d8650" stroke="#3d8650" stroke-width="1.51"/><path d="M1050,646L1105,721L1111,672Z" fill="#5ab769" stroke="#5ab769" stroke-width="1.51"/><path d="M1050,646L1071,801L1105,721Z" fill="#55b466" stroke="#55b466" stroke-width="1.51"/><path d="M972,4L899,43L1050,205Z" fill="#aedd91" stroke="#aedd91" stroke-width="1.51"/><path d="M899,43L921,214L1050,205Z" fill="#aadb8e" stroke="#aadb8e" stroke-width="1.51"/><path d="M1050,646L907,734L1071,801Z" fill="#5bb769" stroke="#5bb769" stroke-width="1.51"/><path d="M1071,801L951,932L1075,926Z" fill="#4da65d" stroke="#4da65d" stroke-width="1.51"/><path d="M1003,1127L1047,1221L1085,1145Z" fill="#3c8e52" stroke="#3c8e52" stroke-width="1.51"/><path d="M858,-158L1043,-134L1087,-226Z" fill="#b9e1a5" stroke="#b9e1a5" stroke-width="1.51"/><path d="M954,1189L855,1261L1047,1221Z" fill="#428d54" stroke="#428d54" stroke-width="1.51"/><path d="M951,932L1006,1012L1075,926Z" fill="#4aa05a" stroke="#4aa05a" stroke-width="1.51"/><path d="M907,734L951,932L1071,801Z" fill="#56af64" stroke="#56af64" stroke-width="1.51"/><path d="M979,338L945,365L989,469Z" fill="#8ccf80" stroke="#8ccf80" stroke-width="1.51"/><path d="M937,-61L979,-18L1043,-134Z" fill="#b8e09a" stroke="#b8e09a" stroke-width="1.51"/><path d="M1003,1127L954,1189L1047,1221Z" fill="#3f8f53" stroke="#3f8f53" stroke-width="1.51"/><path d="M921,214L979,338L1050,205Z" fill="#9cd587" stroke="#9cd587" stroke-width="1.51"/><path d="M991,508L939,510L1050,646Z" fill="#73c476" stroke="#73c476" stroke-width="1.51"/><path d="M939,510L860,633L1050,646Z" fill="#72c275" stroke="#72c275" stroke-width="1.51"/><path d="M860,633L907,734L1050,646Z" fill="#69be70" stroke="#69be70" stroke-width="1.51"/><path d="M858,-158L937,-61L1043,-134Z" fill="#bce2a1" stroke="#bce2a1" stroke-width="1.51"/><path d="M921,214L908,336L979,338Z" fill="#9bd587" stroke="#9bd587" stroke-width="1.51"/><path d="M868,1031L1003,1127L1006,1012Z" fill="#499b59" stroke="#499b59" stroke-width="1.51"/><path d="M951,932L868,1031L1006,1012Z" fill="#4ea05c" stroke="#4ea05c" stroke-width="1.51"/><path d="M868,1031L954,1189L1003,1127Z" fill="#479758" stroke="#479758" stroke-width="1.51"/><path d="M907,734L781,819L951,932Z" fill="#5fb267" stroke="#5fb267" stroke-width="1.51"/><path d="M945,365L939,510L989,469Z" fill="#85cc7e" stroke="#85cc7e" stroke-width="1.51"/><path d="M989,469L939,510L991,508Z" fill="#7dc87b" stroke="#7dc87b" stroke-width="1.51"/><path d="M908,336L945,365L979,338Z" fill="#94d284" stroke="#94d284" stroke-width="1.51"/><path d="M937,-61L972,4L979,-18Z" fill="#b7e197" stroke="#b7e197" stroke-width="1.51"/><path d="M831,529L939,510L945,365Z" fill="#87cc7f" stroke="#87cc7f" stroke-width="1.51"/><path d="M868,1031L786,1085L954,1189Z" fill="#4f9b5a" stroke="#4f9b5a" stroke-width="1.51"/><path d="M937,-61L899,43L972,4Z" fill="#b8e197" stroke="#b8e197" stroke-width="1.51"/><path d="M899,43L774,70L921,214Z" fill="#b5e094" stroke="#b5e094" stroke-width="1.51"/><path d="M831,529L860,633L939,510Z" fill="#7ec87a" stroke="#7ec87a" stroke-width="1.51"/><path d="M908,336L831,529L945,365Z" fill="#90d082" stroke="#90d082" stroke-width="1.51"/><path d="M781,819L786,949L951,932Z" fill="#5eac63" stroke="#5eac63" stroke-width="1.51"/><path d="M786,1085L855,1261L954,1189Z" fill="#4c9458" stroke="#4c9458" stroke-width="1.51"/><path d="M786,949L868,1031L951,932Z" fill="#57a55f" stroke="#57a55f" stroke-width="1.51"/><path d="M802,315L831,529L908,336Z" fill="#97d385" stroke="#97d385" stroke-width="1.51"/><path d="M802,315L722,430L831,529Z" fill="#98d385" stroke="#98d385" stroke-width="1.51"/><path d="M774,70L745,197L921,214Z" fill="#b5e092" stroke="#b5e092" stroke-width="1.51"/><path d="M802,315L908,336L921,214Z" fill="#a1d889" stroke="#a1d889" stroke-width="1.51"/><path d="M785,-118L899,43L937,-61Z" fill="#c0e59c" stroke="#c0e59c" stroke-width="1.51"/><path d="M858,-158L798,-130L937,-61Z" fill="#c2e5a4" stroke="#c2e5a4" stroke-width="1.51"/><path d="M798,-130L785,-118L937,-61Z" fill="#c5e6a3" stroke="#c5e6a3" stroke-width="1.51"/><path d="M742,1221L637,1255L855,1261Z" fill="#559259" stroke="#559259" stroke-width="1.51"/><path d="M615,-208L798,-130L858,-158Z" fill="#cceaad" stroke="#cceaad" stroke-width="1.51"/><path d="M785,-118L774,70L899,43Z" fill="#c1e59b" stroke="#c1e59b" stroke-width="1.51"/><path d="M745,197L802,315L921,214Z" fill="#abdc8e" stroke="#abdc8e" stroke-width="1.51"/><path d="M786,1085L742,1221L855,1261Z" fill="#53965a" stroke="#53965a" stroke-width="1.51"/><path d="M860,633L781,819L907,734Z" fill="#6abd6f" stroke="#6abd6f" stroke-width="1.51"/><path d="M781,605L666,713L781,819Z" fill="#76c374" stroke="#76c374" stroke-width="1.51"/><path d="M831,529L781,605L860,633Z" fill="#7ec87a" stroke="#7ec87a" stroke-width="1.51"/><path d="M781,605L781,819L860,633Z" fill="#74c274" stroke="#74c274" stroke-width="1.51"/><path d="M786,949L760,1065L868,1031Z" fill="#5aa460" stroke="#5aa460" stroke-width="1.51"/><path d="M760,1065L786,1085L868,1031Z" fill="#58a05e" stroke="#58a05e" stroke-width="1.51"/><path d="M703,46L774,70L785,-118Z" fill="#c7e89d" stroke="#c7e89d" stroke-width="1.51"/><path d="M-22,-202L30,-187L407,-204Z" fill="#f6fcc7" stroke="#f6fcc7" stroke-width="1.51"/><path d="M706,338L722,430L802,315Z" fill="#a4d98a" stroke="#a4d98a" stroke-width="1.51"/><path d="M722,430L781,605L831,529Z" fill="#8bce80" stroke="#8bce80" stroke-width="1.51"/><path d="M30,-187L241,-167L407,-204Z" fill="#f2fac3" stroke="#f2fac3" stroke-width="1.51"/><path d="M722,430L616,545L781,605Z" fill="#91d182" stroke="#91d182" stroke-width="1.51"/><path d="M666,713L652,784L781,819Z" fill="#74be71" stroke="#74be71" stroke-width="1.51"/><path d="M647,-59L703,46L785,-118Z" fill="#ceeba1" stroke="#ceeba1" stroke-width="1.51"/><path d="M760,1065L742,1221L786,1085Z" fill="#589d5d" stroke="#589d5d" stroke-width="1.51"/><path d="M781,819L654,847L786,949Z" fill="#69b369" stroke="#69b369" stroke-width="1.51"/><path d="M615,-208L785,-118L798,-130Z" fill="#cfebad" stroke="#cfebad" stroke-width="1.51"/><path d="M745,197L706,338L802,315Z" fill="#acdd8e" stroke="#acdd8e" stroke-width="1.51"/><path d="M611,1184L742,1221L760,1065Z" fill="#5c9c5e" stroke="#5c9c5e" stroke-width="1.51"/><path d="M703,46L745,197L774,70Z" fill="#c0e598" stroke="#c0e598" stroke-width="1.51"/><path d="M615,-208L647,-59L785,-118Z" fill="#d2ecac" stroke="#d2ecac" stroke-width="1.51"/><path d="M617,966L760,1065L786,949Z" fill="#64a963" stroke="#64a963" stroke-width="1.51"/><path d="M654,847L617,966L786,949Z" fill="#6bb067" stroke="#6bb067" stroke-width="1.51"/><path d="M597,1155L611,1184L760,1065Z" fill="#61a060" stroke="#61a060" stroke-width="1.51"/><path d="M616,545L666,713L781,605Z" fill="#87cb7c" stroke="#87cb7c" stroke-width="1.51"/><path d="M652,784L654,847L781,819Z" fill="#72ba6e" stroke="#72ba6e" stroke-width="1.51"/><path d="M624,196L706,338L745,197Z" fill="#b6e192" stroke="#b6e192" stroke-width="1.51"/><path d="M703,46L624,196L745,197Z" fill="#c1e697" stroke="#c1e697" stroke-width="1.51"/><path d="M617,966L597,1155L760,1065Z" fill="#65a663" stroke="#65a663" stroke-width="1.51"/><path d="M611,1184L637,1255L742,1221Z" fill="#5d985d" stroke="#5d985d" stroke-width="1.51"/><path d="M616,545L563,607L666,713Z" fill="#8cce7f" stroke="#8cce7f" stroke-width="1.51"/><path d="M624,196L623,371L706,338Z" fill="#b3e091" stroke="#b3e091" stroke-width="1.51"/><path d="M706,338L623,371L722,430Z" fill="#a7da8b" stroke="#a7da8b" stroke-width="1.51"/><path d="M623,371L616,545L722,430Z" fill="#a0d788" stroke="#a0d788" stroke-width="1.51"/><path d="M647,-59L550,1L703,46Z" fill="#d1eca2" stroke="#d1eca2" stroke-width="1.51"/><path d="M550,1L624,196L703,46Z" fill="#cbea9d" stroke="#cbea9d" stroke-width="1.51"/><path d="M545,508L616,545L623,371Z" fill="#a1d889" stroke="#a1d889" stroke-width="1.51"/><path d="M513,1023L597,1155L617,966Z" fill="#6ca966" stroke="#6ca966" stroke-width="1.51"/><path d="M519,455L545,508L623,371Z" fill="#a7da8c" stroke="#a7da8c" stroke-width="1.51"/><path d="M550,1L500,172L624,196Z" fill="#cdeb9d" stroke="#cdeb9d" stroke-width="1.51"/><path d="M517,278L623,371L624,196Z" fill="#bae394" stroke="#bae394" stroke-width="1.51"/><path d="M615,-208L543,-38L647,-59Z" fill="#d8efac" stroke="#d8efac" stroke-width="1.51"/><path d="M558,876L617,966L654,847Z" fill="#72b56b" stroke="#72b56b" stroke-width="1.51"/><path d="M547,768L652,784L666,713Z" fill="#7cc375" stroke="#7cc375" stroke-width="1.51"/><path d="M563,607L547,768L666,713Z" fill="#85c97b" stroke="#85c97b" stroke-width="1.51"/><path d="M556,-220L543,-38L615,-208Z" fill="#dbf1b3" stroke="#dbf1b3" stroke-width="1.51"/><path d="M571,1202L389,1249L637,1255Z" fill="#679a60" stroke="#679a60" stroke-width="1.51"/><path d="M543,-38L550,1L647,-59Z" fill="#d7efa6" stroke="#d7efa6" stroke-width="1.51"/><path d="M652,784L547,768L654,847Z" fill="#79bf72" stroke="#79bf72" stroke-width="1.51"/><path d="M547,768L558,876L654,847Z" fill="#7abd71" stroke="#7abd71" stroke-width="1.51"/><path d="M611,1184L571,1202L637,1255Z" fill="#629a5f" stroke="#629a5f" stroke-width="1.51"/><path d="M458,-81L543,-38L556,-220Z" fill="#def2b0" stroke="#def2b0" stroke-width="1.51"/><path d="M500,172L517,278L624,196Z" fill="#c4e799" stroke="#c4e799" stroke-width="1.51"/><path d="M517,278L519,455L623,371Z" fill="#b2df90" stroke="#b2df90" stroke-width="1.51"/><path d="M545,508L563,607L616,545Z" fill="#98d385" stroke="#98d385" stroke-width="1.51"/><path d="M558,876L513,1023L617,966Z" fill="#72b16a" stroke="#72b16a" stroke-width="1.51"/><path d="M597,1155L571,1202L611,1184Z" fill="#649d61" stroke="#649d61" stroke-width="1.51"/><path d="M513,1023L571,1202L597,1155Z" fill="#69a464" stroke="#69a464" stroke-width="1.51"/><path d="M380,1058L373,1175L513,1023Z" fill="#76ac6a" stroke="#76ac6a" stroke-width="1.51"/><path d="M517,278L399,358L519,455Z" fill="#b8e293" stroke="#b8e293" stroke-width="1.51"/><path d="M430,16L500,172L550,1Z" fill="#d6efa3" stroke="#d6efa3" stroke-width="1.51"/><path d="M407,-204L458,-81L556,-220Z" fill="#e2f4b8" stroke="#e2f4b8" stroke-width="1.51"/><path d="M547,768L453,853L558,876Z" fill="#7ebe73" stroke="#7ebe73" stroke-width="1.51"/><path d="M453,853L513,1023L558,876Z" fill="#79b66e" stroke="#79b66e" stroke-width="1.51"/><path d="M397,697L547,768L563,607Z" fill="#8ccc7e" stroke="#8ccc7e" stroke-width="1.51"/><path d="M513,1023L373,1175L571,1202Z" fill="#6ea566" stroke="#6ea566" stroke-width="1.51"/><path d="M373,1175L389,1249L571,1202Z" fill="#6e9f64" stroke="#6e9f64" stroke-width="1.51"/><path d="M545,508L362,535L563,607Z" fill="#9fd789" stroke="#9fd789" stroke-width="1.51"/><path d="M362,535L397,697L563,607Z" fill="#9bd485" stroke="#9bd485" stroke-width="1.51"/><path d="M413,794L453,853L547,768Z" fill="#84c377" stroke="#84c377" stroke-width="1.51"/><path d="M397,697L413,794L547,768Z" fill="#8ac97b" stroke="#8ac97b" stroke-width="1.51"/><path d="M543,-38L430,16L550,1Z" fill="#daf1a7" stroke="#daf1a7" stroke-width="1.51"/><path d="M458,-81L430,16L543,-38Z" fill="#dff2a9" stroke="#dff2a9" stroke-width="1.51"/><path d="M519,455L362,535L545,508Z" fill="#a6da8c" stroke="#a6da8c" stroke-width="1.51"/><path d="M453,853L351,1001L513,1023Z" fill="#7bb56d" stroke="#7bb56d" stroke-width="1.51"/><path d="M500,172L375,209L517,278Z" fill="#cae99c" stroke="#cae99c" stroke-width="1.51"/><path d="M399,358L369,438L519,455Z" fill="#b5e192" stroke="#b5e192" stroke-width="1.51"/><path d="M369,438L362,535L519,455Z" fill="#aedd8f" stroke="#aedd8f" stroke-width="1.51"/><path d="M351,1001L380,1058L513,1023Z" fill="#79b06c" stroke="#79b06c" stroke-width="1.51"/><path d="M375,209L399,358L517,278Z" fill="#c5e899" stroke="#c5e899" stroke-width="1.51"/><path d="M430,16L319,145L500,172Z" fill="#d8efa3" stroke="#d8efa3" stroke-width="1.51"/><path d="M319,145L375,209L500,172Z" fill="#d3eea0" stroke="#d3eea0" stroke-width="1.51"/><path d="M298,87L319,145L430,16Z" fill="#dff2a7" stroke="#dff2a7" stroke-width="1.51"/><path d="M291,861L351,1001L453,853Z" fill="#85bc73" stroke="#85bc73" stroke-width="1.51"/><path d="M407,-204L236,-92L458,-81Z" fill="#eaf7b7" stroke="#eaf7b7" stroke-width="1.51"/><path d="M236,-92L270,-14L458,-81Z" fill="#ebf7b1" stroke="#ebf7b1" stroke-width="1.51"/><path d="M270,-14L430,16L458,-81Z" fill="#e5f5ac" stroke="#e5f5ac" stroke-width="1.51"/><path d="M413,794L291,861L453,853Z" fill="#88c277" stroke="#88c277" stroke-width="1.51"/><path d="M362,535L246,621L397,697Z" fill="#a2d689" stroke="#a2d689" stroke-width="1.51"/><path d="M375,209L294,344L399,358Z" fill="#c8e99a" stroke="#c8e99a" stroke-width="1.51"/><path d="M241,-167L236,-92L407,-204Z" fill="#eef9bd" stroke="#eef9bd" stroke-width="1.51"/><path d="M270,-14L298,87L430,16Z" fill="#e4f4ab" stroke="#e4f4ab" stroke-width="1.51"/><path d="M397,697L242,800L413,794Z" fill="#90cb7e" stroke="#90cb7e" stroke-width="1.51"/><path d="M242,800L291,861L413,794Z" fill="#8dc67b" stroke="#8dc67b" stroke-width="1.51"/><path d="M294,344L285,414L369,438Z" fill="#bee597" stroke="#bee597" stroke-width="1.51"/><path d="M260,1133L373,1175L380,1058Z" fill="#79ab6b" stroke="#79ab6b" stroke-width="1.51"/><path d="M373,1175L315,1239L389,1249Z" fill="#73a067" stroke="#73a067" stroke-width="1.51"/><path d="M222,773L242,800L397,697Z" fill="#94cd80" stroke="#94cd80" stroke-width="1.51"/><path d="M294,344L369,438L399,358Z" fill="#bfe596" stroke="#bfe596" stroke-width="1.51"/><path d="M246,621L222,773L397,697Z" fill="#9ad284" stroke="#9ad284" stroke-width="1.51"/><path d="M285,414L362,535L369,438Z" fill="#b5e093" stroke="#b5e093" stroke-width="1.51"/><path d="M195,221L294,344L375,209Z" fill="#d1ed9f" stroke="#d1ed9f" stroke-width="1.51"/><path d="M351,1001L260,1133L380,1058Z" fill="#7db06e" stroke="#7db06e" stroke-width="1.51"/><path d="M285,414L247,534L362,535Z" fill="#b3df93" stroke="#b3df93" stroke-width="1.51"/><path d="M247,534L246,621L362,535Z" fill="#abdb8f" stroke="#abdb8f" stroke-width="1.51"/><path d="M319,145L195,221L375,209Z" fill="#d8f0a3" stroke="#d8f0a3" stroke-width="1.51"/><path d="M29,1215L-39,1237L200,1234Z" fill="#82a571" stroke="#82a571" stroke-width="1.51"/><path d="M260,1133L315,1239L373,1175Z" fill="#77a56a" stroke="#77a56a" stroke-width="1.51"/><path d="M291,861L157,1010L351,1001Z" fill="#86b974" stroke="#86b974" stroke-width="1.51"/><path d="M157,1010L260,1133L351,1001Z" fill="#81b271" stroke="#81b271" stroke-width="1.51"/><path d="M30,-187L131,-144L241,-167Z" fill="#f6fcc4" stroke="#f6fcc4" stroke-width="1.51"/><path d="M230,597L246,621L247,534Z" fill="#abdb8f" stroke="#abdb8f" stroke-width="1.51"/><path d="M211,474L247,534L285,414Z" fill="#b8e295" stroke="#b8e295" stroke-width="1.51"/><path d="M167,882L157,1010L291,861Z" fill="#8cbd78" stroke="#8cbd78" stroke-width="1.51"/><path d="M260,1133L200,1234L315,1239Z" fill="#79a46a" stroke="#79a46a" stroke-width="1.51"/><path d="M298,87L195,221L319,145Z" fill="#def2a6" stroke="#def2a6" stroke-width="1.51"/><path d="M146,701L222,773L246,621Z" fill="#9fd387" stroke="#9fd387" stroke-width="1.51"/><path d="M157,1010L182,1132L260,1133Z" fill="#82b071" stroke="#82b071" stroke-width="1.51"/><path d="M270,-14L141,94L298,87Z" fill="#e7f6ad" stroke="#e7f6ad" stroke-width="1.51"/><path d="M141,94L195,221L298,87Z" fill="#e2f4a9" stroke="#e2f4a9" stroke-width="1.51"/><path d="M195,221L129,241L294,344Z" fill="#d3eda2" stroke="#d3eda2" stroke-width="1.51"/><path d="M211,474L285,414L294,344Z" fill="#c0e598" stroke="#c0e598" stroke-width="1.51"/><path d="M66,393L211,474L294,344Z" fill="#c4e79b" stroke="#c4e79b" stroke-width="1.51"/><path d="M129,241L66,393L294,344Z" fill="#cfeca0" stroke="#cfeca0" stroke-width="1.51"/><path d="M242,800L167,882L291,861Z" fill="#90c47c" stroke="#90c47c" stroke-width="1.51"/><path d="M182,1132L200,1234L260,1133Z" fill="#7da96e" stroke="#7da96e" stroke-width="1.51"/><path d="M236,-92L141,94L270,-14Z" fill="#ecf8b1" stroke="#ecf8b1" stroke-width="1.51"/><path d="M28,-12L141,94L236,-92Z" fill="#f1f9b4" stroke="#f1f9b4" stroke-width="1.51"/><path d="M131,-144L28,-12L236,-92Z" fill="#f5fbbb" stroke="#f5fbbb" stroke-width="1.51"/><path d="M131,-144L236,-92L241,-167Z" fill="#f2fabe" stroke="#f2fabe" stroke-width="1.51"/><path d="M230,597L146,701L246,621Z" fill="#a5d78c" stroke="#a5d78c" stroke-width="1.51"/><path d="M211,474L230,597L247,534Z" fill="#b1de93" stroke="#b1de93" stroke-width="1.51"/><path d="M222,773L167,882L242,800Z" fill="#93c87f" stroke="#93c87f" stroke-width="1.51"/><path d="M211,474L33,582L230,597Z" fill="#b2de94" stroke="#b2de94" stroke-width="1.51"/><path d="M33,582L146,701L230,597Z" fill="#aada8f" stroke="#aada8f" stroke-width="1.51"/><path d="M97,872L167,882L222,773Z" fill="#94c67e" stroke="#94c67e" stroke-width="1.51"/><path d="M146,701L97,872L222,773Z" fill="#99cd83" stroke="#99cd83" stroke-width="1.51"/><path d="M141,94L129,241L195,221Z" fill="#e0f3a8" stroke="#e0f3a8" stroke-width="1.51"/><path d="M66,393L33,582L211,474Z" fill="#bee49a" stroke="#bee49a" stroke-width="1.51"/><path d="M60,200L129,241L141,94Z" fill="#e3f4aa" stroke="#e3f4aa" stroke-width="1.51"/><path d="M35,828L97,872L146,701Z" fill="#9bcd84" stroke="#9bcd84" stroke-width="1.51"/><path d="M157,1010L76,1131L182,1132Z" fill="#85b173" stroke="#85b173" stroke-width="1.51"/><path d="M182,1132L76,1131L200,1234Z" fill="#80aa70" stroke="#80aa70" stroke-width="1.51"/><path d="M76,1131L29,1215L200,1234Z" fill="#81a870" stroke="#81a870" stroke-width="1.51"/><path d="M97,872L157,1010L167,882Z" fill="#8fbf79" stroke="#8fbf79" stroke-width="1.51"/><path d="M33,582L27,652L146,701Z" fill="#acda90" stroke="#acda90" stroke-width="1.51"/><path d="M97,872L5,962L157,1010Z" fill="#90bd7a" stroke="#90bd7a" stroke-width="1.51"/><path d="M7,256L66,393L129,241Z" fill="#d7efa5" stroke="#d7efa5" stroke-width="1.51"/><path d="M5,962L76,1131L157,1010Z" fill="#8bb778" stroke="#8bb778" stroke-width="1.51"/><path d="M5,962L-35,1050L76,1131Z" fill="#8cb67b" stroke="#8cb67b" stroke-width="1.51"/><path d="M14,96L60,200L141,94Z" fill="#e9f7ae" stroke="#e9f7ae" stroke-width="1.51"/><path d="M28,-12L14,96L141,94Z" fill="#eff9b3" stroke="#eff9b3" stroke-width="1.51"/><path d="M27,652L35,828L146,701Z" fill="#a2d48a" stroke="#a2d48a" stroke-width="1.51"/><path d="M30,-187L28,-12L131,-144Z" fill="#f9fcc1" stroke="#f9fcc1" stroke-width="1.51"/><path d="M60,200L7,256L129,241Z" fill="#dff2a9" stroke="#dff2a9" stroke-width="1.51"/><path d="M-53,532L33,582L66,393Z" fill="#bee39e" stroke="#bee39e" stroke-width="1.51"/><path d="M27,652L-19,811L35,828Z" fill="#a0d18b" stroke="#a0d18b" stroke-width="1.51"/><path d="M7,256L-53,340L66,393Z" fill="#d5eea8" stroke="#d5eea8" stroke-width="1.51"/><path d="M-47,394L-53,532L66,393Z" fill="#c7e8a4" stroke="#c7e8a4" stroke-width="1.51"/><path d="M35,828L5,962L97,872Z" fill="#96c480" stroke="#96c480" stroke-width="1.51"/><path d="M-31,48L14,96L28,-12Z" fill="#f1fab8" stroke="#f1fab8" stroke-width="1.51"/><path d="M-83,-62L28,-12L30,-187Z" fill="#f9fdc3" stroke="#f9fdc3" stroke-width="1.51"/><path d="M-35,1050L29,1215L76,1131Z" fill="#87b077" stroke="#87b077" stroke-width="1.51"/><path d="M-22,-202L-83,-62L30,-187Z" fill="#fbfdcc" stroke="#fbfdcc" stroke-width="1.51"/><path d="M14,96L-66,214L60,200Z" fill="#e7f6b1" stroke="#e7f6b1" stroke-width="1.51"/><path d="M-53,340L-47,394L66,393Z" fill="#cfeba7" stroke="#cfeba7" stroke-width="1.51"/><path d="M-100,689L-19,811L27,652Z" fill="#a5d591" stroke="#a5d591" stroke-width="1.51"/><path d="M-35,1050L-118,1156L29,1215Z" fill="#87af7b" stroke="#87af7b" stroke-width="1.51"/><path d="M-19,811L5,962L35,828Z" fill="#98c684" stroke="#98c684" stroke-width="1.51"/><path d="M-66,214L7,256L60,200Z" fill="#e1f3ae" stroke="#e1f3ae" stroke-width="1.51"/><path d="M-19,811L-98,893L5,962Z" fill="#97c485" stroke="#97c485" stroke-width="1.51"/><path d="M-118,1156L-39,1237L29,1215Z" fill="#84a978" stroke="#84a978" stroke-width="1.51"/><path d="M-53,532L27,652L33,582Z" fill="#b4de99" stroke="#b4de99" stroke-width="1.51"/><path d="M-53,532L-100,689L27,652Z" fill="#b0dc9a" stroke="#b0dc9a" stroke-width="1.51"/><path d="M-83,-62L-31,48L28,-12Z" fill="#f6fcbe" stroke="#f6fcbe" stroke-width="1.51"/><path d="M-100,689L-123,735L-19,811Z" fill="#a2d394" stroke="#a2d394" stroke-width="1.51"/><path d="M-31,48L-66,214L14,96Z" fill="#ecf8b6" stroke="#ecf8b6" stroke-width="1.51"/><path d="M-66,214L-53,340L7,256Z" fill="#dcf1ae" stroke="#dcf1ae" stroke-width="1.51"/><path d="M-98,893L-35,1050L5,962Z" fill="#91bd82" stroke="#91bd82" stroke-width="1.51"/><path d="M-98,893L-184,1020L-35,1050Z" fill="#91bc85" stroke="#91bc85" stroke-width="1.51"/><path d="M-83,-62L-144,-32L-31,48Z" fill="#f7fcc2" stroke="#f7fcc2" stroke-width="1.51"/><path d="M-189,54L-66,214L-31,48Z" fill="#eef9bc" stroke="#eef9bc" stroke-width="1.51"/><path d="M-160,-155L-83,-62L-22,-202Z" fill="#fbfdcf" stroke="#fbfdcf" stroke-width="1.51"/><path d="M-123,735L-98,893L-19,811Z" fill="#9dcc8e" stroke="#9dcc8e" stroke-width="1.51"/><path d="M-189,54L-225,126L-66,214Z" fill="#edf8bf" stroke="#edf8bf" stroke-width="1.51"/><path d="M-175,364L-232,504L-53,532Z" fill="#c5e7ac" stroke="#c5e7ac" stroke-width="1.51"/><path d="M-175,364L-53,532L-47,394Z" fill="#c9e9aa" stroke="#c9e9aa" stroke-width="1.51"/><path d="M-118,1156L-145,1211L-39,1237Z" fill="#85a97c" stroke="#85a97c" stroke-width="1.51"/><path d="M-144,-32L-189,54L-31,48Z" fill="#f5fbc3" stroke="#f5fbc3" stroke-width="1.51"/><path d="M-66,214L-175,364L-53,340Z" fill="#d9f0b1" stroke="#d9f0b1" stroke-width="1.51"/><path d="M-184,1020L-118,1156L-35,1050Z" fill="#8cb582" stroke="#8cb582" stroke-width="1.51"/><path d="M-232,504L-100,689L-53,532Z" fill="#b7e0a4" stroke="#b7e0a4" stroke-width="1.51"/><path d="M-226,256L-175,364L-66,214Z" fill="#ddf1b7" stroke="#ddf1b7" stroke-width="1.51"/><path d="M-53,340L-175,364L-47,394Z" fill="#d1edad" stroke="#d1edad" stroke-width="1.51"/><path d="M-232,504L-153,712L-100,689Z" fill="#b1dca1" stroke="#b1dca1" stroke-width="1.51"/><path d="M-203,933L-184,1020L-98,893Z" fill="#94bf8b" stroke="#94bf8b" stroke-width="1.51"/><path d="M-225,126L-226,256L-66,214Z" fill="#e6f5bc" stroke="#e6f5bc" stroke-width="1.51"/><path d="M-123,735L-203,933L-98,893Z" fill="#9bc890" stroke="#9bc890" stroke-width="1.51"/><path d="M-160,-155L-144,-32L-83,-62Z" fill="#fbfdcc" stroke="#fbfdcc" stroke-width="1.51"/><path d="M-153,712L-203,933L-123,735Z" fill="#a0cf95" stroke="#a0cf95" stroke-width="1.51"/><path d="M-184,1020L-233,1134L-118,1156Z" fill="#8bb386" stroke="#8bb386" stroke-width="1.51"/><path d="M-153,712L-123,735L-100,689Z" fill="#a6d699" stroke="#a6d699" stroke-width="1.51"/><path d="M-233,1134L-145,1211L-118,1156Z" fill="#87ad82" stroke="#87ad82" stroke-width="1.51"/><path d="M-160,-155L-189,54L-144,-32Z" fill="#fafdca" stroke="#fafdca" stroke-width="1.51"/><path d="M-232,504L-203,933L-153,712Z" fill="#a7d79e" stroke="#a7d79e" stroke-width="1.51"/><path d="M-225,126L-189,54L-160,-155Z" fill="#f7fcc9" stroke="#f7fcc9" stroke-width="1.51"/><path d="M-226,256L-232,504L-175,364Z" fill="#d2edb6" stroke="#d2edb6" stroke-width="1.51"/><path d="M-203,933L-233,1134L-184,1020Z" fill="#90b98b" stroke="#90b98b" stroke-width="1.51"/><path d="M-232,504L-233,1134L-203,933Z" fill="#9cc895" stroke="#9cc895" stroke-width="1.51"/><path d="M-232,504L-226,256L-225,126Z" fill="#dcf1bb" stroke="#dcf1bb" stroke-width="1.51"/></svg>