<?xml version="1.0" standalone="no"?><!-- Generator: Gravit.io --><svg xmlns="http://www.w3.org/2000/svg" xmlns:xlink="http://www.w3.org/1999/xlink" style="isolation:isolate" viewBox="0 0 500 500" width="500" height="500"><defs><clipPath id="_clipPath_EIxYBY4h4Fq8HDY0WOAWYbE7NdK6luC5"><rect width="500" height="500"/></clipPath></defs><g clip-path="url(#_clipPath_EIxYBY4h4Fq8HDY0WOAWYbE7NdK6luC5)"><g id="Grupo"><g id="Grupo"><path d=" M 21.022 366.348 L 21.022 366.348 L 21.022 366.348 Q 21.022 362.159 22.6 358.099 L 22.6 358.099 L 22.6 358.099 Q 24.179 354.039 27.208 350.817 L 27.208 350.817 L 27.208 350.817 Q 30.237 347.595 34.555 345.597 L 34.555 345.597 L 34.555 345.597 Q 38.873 343.599 44.415 343.599 L 44.415 343.599 L 44.415 343.599 Q 51.053 343.599 55.919 346.338 L 55.919 346.338 L 55.919 346.338 Q 60.785 349.077 63.169 353.588 L 63.169 353.588 L 53.567 360.419 L 53.567 360.419 Q 52.922 358.744 51.859 357.648 L 51.859 357.648 L 51.859 357.648 Q 50.796 356.553 49.507 355.908 L 49.507 355.908 L 49.507 355.908 Q 48.218 355.264 46.832 355.006 L 46.832 355.006 L 46.832 355.006 Q 45.447 354.748 44.158 354.748 L 44.158 354.748 L 44.158 354.748 Q 41.451 354.748 39.485 355.811 L 39.485 355.811 L 39.485 355.811 Q 37.52 356.875 36.263 358.583 L 36.263 358.583 L 36.263 358.583 Q 35.006 360.29 34.394 362.449 L 34.394 362.449 L 34.394 362.449 Q 33.782 364.608 33.782 366.735 L 33.782 366.735 L 33.782 366.735 Q 33.782 369.12 34.491 371.311 L 34.491 371.311 L 34.491 371.311 Q 35.2 373.502 36.553 375.177 L 36.553 375.177 L 36.553 375.177 Q 37.906 376.853 39.872 377.852 L 39.872 377.852 L 39.872 377.852 Q 41.838 378.851 44.287 378.851 L 44.287 378.851 L 44.287 378.851 Q 45.575 378.851 46.929 378.561 L 46.929 378.561 L 46.929 378.561 Q 48.282 378.271 49.539 377.594 L 49.539 377.594 L 49.539 377.594 Q 50.796 376.918 51.794 375.854 L 51.794 375.854 L 51.794 375.854 Q 52.793 374.791 53.373 373.244 L 53.373 373.244 L 63.62 379.366 L 63.62 379.366 Q 62.589 381.88 60.495 383.878 L 60.495 383.878 L 60.495 383.878 Q 58.4 385.875 55.726 387.229 L 55.726 387.229 L 55.726 387.229 Q 53.051 388.582 49.99 389.291 L 49.99 389.291 L 49.99 389.291 Q 46.929 390 44.029 390 L 44.029 390 L 44.029 390 Q 38.938 390 34.716 387.97 L 34.716 387.97 L 34.716 387.97 Q 30.495 385.94 27.434 382.589 L 27.434 382.589 L 27.434 382.589 Q 24.373 379.238 22.697 374.984 L 22.697 374.984 L 22.697 374.984 Q 21.022 370.731 21.022 366.348 Z  M 61.322 389.613 L 77.24 343.857 L 88.711 343.857 L 104.565 389.613 L 91.805 389.613 L 89.033 380.655 L 76.853 380.655 L 74.146 389.613 L 61.322 389.613 Z  M 78.722 372.277 L 87.036 372.277 L 82.976 358.099 L 78.722 372.277 Z  M 137.883 389.613 L 104.565 389.613 L 104.565 343.857 L 117.132 343.857 L 117.132 378.658 L 137.883 378.658 L 137.883 389.613 Z  M 152.147 389.613 L 139.58 389.613 L 139.58 343.857 L 152.147 343.857 L 152.147 389.613 Z  M 185.38 389.613 L 167.206 367.122 L 167.206 389.613 L 154.639 389.613 L 154.639 343.857 L 164.435 343.857 L 182.802 367.122 L 182.802 343.857 L 195.369 343.857 L 195.369 389.613 L 185.38 389.613 Z  M 215.455 389.613 L 197.861 389.613 L 197.861 343.857 L 215.455 343.857 L 215.455 343.857 Q 221.126 343.857 225.444 345.661 L 225.444 345.661 L 225.444 345.661 Q 229.762 347.466 232.662 350.559 L 232.662 350.559 L 232.662 350.559 Q 235.562 353.653 237.044 357.809 L 237.044 357.809 L 237.044 357.809 Q 238.526 361.966 238.526 366.671 L 238.526 366.671 L 238.526 366.671 Q 238.526 371.891 236.883 376.112 L 236.883 376.112 L 236.883 376.112 Q 235.24 380.333 232.211 383.33 L 232.211 383.33 L 232.211 383.33 Q 229.182 386.327 224.928 387.97 L 224.928 387.97 L 224.928 387.97 Q 220.675 389.613 215.455 389.613 L 215.455 389.613 Z  M 225.766 366.671 L 225.766 366.671 L 225.766 366.671 Q 225.766 364.028 225.057 361.837 L 225.057 361.837 L 225.057 361.837 Q 224.348 359.646 223.027 358.099 L 223.027 358.099 L 223.027 358.099 Q 221.706 356.553 219.773 355.683 L 219.773 355.683 L 219.773 355.683 Q 217.839 354.813 215.455 354.813 L 215.455 354.813 L 210.428 354.813 L 210.428 378.658 L 215.455 378.658 L 215.455 378.658 Q 217.904 378.658 219.837 377.755 L 219.837 377.755 L 219.837 377.755 Q 221.77 376.853 223.092 375.242 L 223.092 375.242 L 223.092 375.242 Q 224.413 373.631 225.089 371.44 L 225.089 371.44 L 225.089 371.44 Q 225.766 369.248 225.766 366.671 Z  M 252.543 389.613 L 239.976 389.613 L 239.976 343.857 L 260.986 343.857 L 260.986 343.857 Q 264.337 343.857 267.173 345.242 L 267.173 345.242 L 267.173 345.242 Q 270.008 346.628 272.038 348.851 L 272.038 348.851 L 272.038 348.851 Q 274.068 351.075 275.228 353.943 L 275.228 353.943 L 275.228 353.943 Q 276.388 356.81 276.388 359.71 L 276.388 359.71 L 276.388 359.71 Q 276.388 363.706 274.648 367.154 L 274.648 367.154 L 274.648 367.154 Q 272.908 370.602 269.815 372.793 L 269.815 372.793 L 279.482 389.613 L 265.304 389.613 L 257.248 375.564 L 252.543 375.564 L 252.543 389.613 Z  M 252.543 354.813 L 252.543 364.608 L 260.47 364.608 L 260.47 364.608 Q 261.63 364.608 262.629 363.319 L 262.629 363.319 L 262.629 363.319 Q 263.628 362.03 263.628 359.71 L 263.628 359.71 L 263.628 359.71 Q 263.628 357.326 262.468 356.069 L 262.468 356.069 L 262.468 356.069 Q 261.308 354.813 260.148 354.813 L 260.148 354.813 L 252.543 354.813 Z  M 279.417 389.613 L 295.335 343.857 L 306.807 343.857 L 322.661 389.613 L 309.9 389.613 L 307.129 380.655 L 294.949 380.655 L 292.242 389.613 L 279.417 389.613 Z  M 296.818 372.277 L 305.131 372.277 L 301.071 358.099 L 296.818 372.277 Z " fill-rule="evenodd" fill="rgb(208,208,208)"/><path d=" M 360.323 343.857 L 360.323 354.813 L 347.176 354.813 L 347.176 389.613 L 334.609 389.613 L 334.609 354.813 L 321.398 354.813 L 321.398 343.857 L 360.323 343.857 Z  M 374.78 378.658 L 394.823 378.658 L 394.823 389.613 L 362.213 389.613 L 362.213 343.857 L 394.243 343.857 L 394.243 354.813 L 374.78 354.813 L 374.78 361.257 L 391.407 361.257 L 391.407 371.44 L 374.78 371.44 L 374.78 378.658 Z  M 394.146 366.348 L 394.146 366.348 L 394.146 366.348 Q 394.146 362.159 395.725 358.099 L 395.725 358.099 L 395.725 358.099 Q 397.304 354.039 400.333 350.817 L 400.333 350.817 L 400.333 350.817 Q 403.362 347.595 407.68 345.597 L 407.68 345.597 L 407.68 345.597 Q 411.998 343.599 417.54 343.599 L 417.54 343.599 L 417.54 343.599 Q 424.178 343.599 429.044 346.338 L 429.044 346.338 L 429.044 346.338 Q 433.909 349.077 436.294 353.588 L 436.294 353.588 L 426.691 360.419 L 426.691 360.419 Q 426.047 358.744 424.984 357.648 L 424.984 357.648 L 424.984 357.648 Q 423.92 356.553 422.631 355.908 L 422.631 355.908 L 422.631 355.908 Q 421.342 355.264 419.957 355.006 L 419.957 355.006 L 419.957 355.006 Q 418.571 354.748 417.282 354.748 L 417.282 354.748 L 417.282 354.748 Q 414.576 354.748 412.61 355.811 L 412.61 355.811 L 412.61 355.811 Q 410.644 356.875 409.388 358.583 L 409.388 358.583 L 409.388 358.583 Q 408.131 360.29 407.519 362.449 L 407.519 362.449 L 407.519 362.449 Q 406.906 364.608 406.906 366.735 L 406.906 366.735 L 406.906 366.735 Q 406.906 369.12 407.615 371.311 L 407.615 371.311 L 407.615 371.311 Q 408.324 373.502 409.678 375.177 L 409.678 375.177 L 409.678 375.177 Q 411.031 376.853 412.997 377.852 L 412.997 377.852 L 412.997 377.852 Q 414.962 378.851 417.411 378.851 L 417.411 378.851 L 417.411 378.851 Q 418.7 378.851 420.053 378.561 L 420.053 378.561 L 420.053 378.561 Q 421.407 378.271 422.663 377.594 L 422.663 377.594 L 422.663 377.594 Q 423.92 376.918 424.919 375.854 L 424.919 375.854 L 424.919 375.854 Q 425.918 374.791 426.498 373.244 L 426.498 373.244 L 436.745 379.366 L 436.745 379.366 Q 435.714 381.88 433.619 383.878 L 433.619 383.878 L 433.619 383.878 Q 431.525 385.875 428.85 387.229 L 428.85 387.229 L 428.85 387.229 Q 426.176 388.582 423.115 389.291 L 423.115 389.291 L 423.115 389.291 Q 420.053 390 417.153 390 L 417.153 390 L 417.153 390 Q 412.062 390 407.841 387.97 L 407.841 387.97 L 407.841 387.97 Q 403.62 385.94 400.559 382.589 L 400.559 382.589 L 400.559 382.589 Q 397.497 379.238 395.822 374.984 L 395.822 374.984 L 395.822 374.984 Q 394.146 370.731 394.146 366.348 Z  M 466.411 343.857 L 478.978 343.857 L 478.978 389.613 L 466.411 389.613 L 466.411 371.697 L 451.073 371.697 L 451.073 389.613 L 438.506 389.613 L 438.506 343.857 L 451.073 343.857 L 451.073 360.742 L 466.411 360.742 L 466.411 343.857 Z " fill-rule="evenodd" fill="rgb(86,130,3)"/></g><g id="Grupo"><path d=" M 147.603 282.979 L 287.758 161.601 L 306.637 194.301 L 349.682 268.856 C 349.682 268.856 349.682 268.856 349.682 268.856 C 357.184 281.85 351.093 292.399 336.089 292.399 L 163.911 292.399 C 155.023 292.399 149.263 288.698 147.603 282.979 Z " fill="rgb(86,130,3)"/><path d=" M 150.318 268.856 L 215.146 156.57 L 236.407 119.746 C 243.909 106.751 256.091 106.751 263.593 119.746 L 325.516 227 L 150.323 287.689 C 146.2 283.392 145.874 276.553 150.318 268.856 Z " fill="rgb(112,166,13)"/><path d=" M 150.318 268.856 L 236.407 119.746 C 243.909 106.751 256.091 106.751 263.593 119.746 L 287.758 161.601 L 147.603 282.979 C 146.461 279.043 147.26 274.153 150.318 268.856 Z " fill="rgb(150,210,38)"/></g></g></g></svg>