<svg xmlns:svg="http://www.w3.org/2000/svg" xmlns="http://www.w3.org/2000/svg" width="640" height="480" viewBox="0 0 640 480" version="1.1"><g transform="translate(0,-572.36216)"><rect width="162.1" height="164.7" x="240.4" y="676.1" fill="#fff"/><g transform="translate(33.11578,-37.66909)"><path d="m186.9 695.4 0 200 200 0 0-200-200 0zm105.4 40c11.4 0 21.3 2.4 29.7 7.2 8.4 4.7 14.7 10.9 18.8 18.7L316 778.9c-1.1-2.9-2.6-5.3-4.5-7.2-1.8-1.9-3.8-3.4-6-4.5-2.2-1.1-4.6-1.9-7-2.3-2.3-0.4-4.6-0.7-6.8-0.7-4.7 0-8.7 0.9-12.2 2.8-3.3 1.8-6.1 4.2-8.3 7.2-2.1 2.9-3.7 6.2-4.8 10-1 3.7-1.5 7.3-1.5 11 0 4.1 0.6 8.1 1.8 11.8 1.2 3.8 3 7.1 5.3 10 2.3 2.9 5.2 5.2 8.5 7 3.4 1.7 7.3 2.5 11.5 2.5 2.2 0 4.5-0.2 6.8-0.7 2.3-0.6 4.6-1.4 6.7-2.5 2.2-1.2 4.2-2.7 5.8-4.5 1.8-1.9 3.2-4.2 4.2-6.8l26.5 15.8c-1.8 4.3-4.5 8.2-8.2 11.7-3.6 3.4-7.7 6.3-12.3 8.7-4.6 2.3-9.5 4.1-14.8 5.3-5.2 1.2-10.3 1.8-15.3 1.8-8.8 0-16.8-1.7-24.2-5.2-7.2-3.6-13.5-8.2-18.8-14-5.2-5.8-9.3-12.3-12.2-19.7-2.9-7.3-4.3-14.8-4.3-22.3 0-7.2 1.3-14.3 4-21.3 2.8-7 6.8-13.3 12-18.8 5.2-5.6 11.6-10.1 19-13.5 7.4-3.4 15.9-5.2 25.5-5.2z" fill="#5aa02c"/><g transform="translate(-79.999995,460)" style="fill:#333;font-family:Sans;font-size:103.2;letter-spacing:0;line-height:125;word-spacing:0"><path d="m157.4 474.7c-5.6 0-10.5 1-14.9 3-4.3 2-8 4.6-11.1 7.9-3 3.2-5.4 6.9-7 11-1.6 4.1-2.3 8.2-2.3 12.4 0 4.4 0.8 8.8 2.5 13 1.7 4.3 4.1 8.1 7.1 11.5 3.1 3.4 6.8 6.1 11 8.2 4.3 2 9 3 14.1 3 2.9 0 5.9-0.4 8.9-1.1 3.1-0.7 6-1.8 8.7-3.1 2.7-1.4 5.1-3 7.2-5.1 2.1-2 3.7-4.3 4.8-6.8l-15.5-9.2c-0.6 1.6-1.4 2.9-2.4 4-1 1-2.1 1.9-3.4 2.6-1.2 0.6-2.5 1.1-3.9 1.5-1.4 0.3-2.7 0.4-4 0.4-2.5 0-4.7-0.5-6.7-1.5-1.9-1-3.6-2.4-5-4.1-1.4-1.7-2.4-3.6-3.1-5.8-0.7-2.2-1.1-4.5-1.1-6.9 0-2.1 0.3-4.3 0.9-6.4 0.6-2.2 1.6-4.1 2.8-5.8 1.3-1.7 2.9-3.1 4.9-4.2 2-1.1 4.4-1.7 7.1-1.7 1.3 0 2.6 0.1 4 0.4 1.4 0.3 2.8 0.7 4.1 1.4 1.3 0.6 2.5 1.5 3.5 2.6 1.1 1.1 2 2.5 2.6 4.2L185.7 489.7c-2.4-4.5-6.1-8.2-11-10.9-4.9-2.8-10.6-4.2-17.3-4.2zm52.3 0.4-24 69 19.3 0 4.1-13.5 18.4 0 4.2 13.5 19.3 0-23.9-69-17.3 0zm47.1 0 0 69 50.3 0 0-16.5-31.3 0 0-52.5-19 0zm56.8 0 0 69 19 0 0-69-19 0zm30.8 0 0 69 19 0 0-33.9 27.4 33.9 15.1 0 0-69-19 0 0 35.1-27.7-35.1-14.8 0zm73.3 0 0 69 26.5 0c5.2 0 10-0.8 14.3-2.4 4.3-1.7 7.9-4 11-7 3-3 5.4-6.7 7-10.9 1.7-4.3 2.5-9 2.5-14.3 0-4.7-0.7-9.2-2.2-13.3-1.5-4.2-3.7-7.9-6.6-11-2.9-3.1-6.5-5.6-10.9-7.4-4.3-1.8-9.4-2.7-15.1-2.7l-26.5 0zm69.5 0 0 69 19 0 0-21.2 7.1 0 12.2 21.2 21.4 0 19.1 0 4.1-13.5 18.4 0 4.2 13.5 19.3 0-23.9-69-17.3 0-23.9 68.8-14.5-25.1c3.1-2.2 5.5-5 7.3-8.5 1.7-3.5 2.6-7.3 2.6-11.3 0-2.9-0.6-5.8-1.8-8.7-1.2-2.9-2.8-5.5-4.9-7.7-2-2.3-4.4-4.1-7.3-5.4-2.9-1.4-6-2.1-9.3-2.1l-31.7 0zm-50.5 16.5 7.6 0c2.4 0 4.6 0.5 6.5 1.4 1.9 0.8 3.6 2 4.9 3.6 1.4 1.6 2.4 3.4 3.1 5.6 0.7 2.2 1.1 4.6 1.1 7.3 0 2.6-0.4 5-1.1 7.2-0.6 2.2-1.7 4.1-3 5.7-1.3 1.6-2.9 2.9-4.9 3.8-1.9 0.9-4.1 1.4-6.6 1.4l-7.6 0 0-36zm69.5 0 11.5 0c1.2 0 2.3 0.6 3.5 1.9 1.2 1.2 1.7 3 1.7 5.4 0 2.3-0.5 4.1-1.6 5.4-1 1.3-2 1.9-3.2 1.9l-12 0 0-14.8zm-287.7 5 6.1 21.4-12.5 0 6.4-21.4zm360.8 0 6.1 21.4-12.5 0 6.4-21.4z" style="-inkscape-font-specification:'Raleway Heavy';fill:#333;font-family:Raleway;font-weight:900"/></g></g></g></svg>