<svg xmlns:svg="http://www.w3.org/2000/svg" xmlns="http://www.w3.org/2000/svg" width="200" height="200" viewBox="0 0 200 200" version="1.1"><g transform="translate(0,-852.36216)"><g transform="translate(-272.04724,480.80801)"><rect y="380.6" x="277.8" height="182.8" width="186.9" fill="#fff"/><path d="m272 371.6 0 200 200 0 0-200-200 0zm105.4 40c11.4 0 21.3 2.4 29.7 7.2 8.4 4.7 14.7 10.9 18.8 18.7l-24.8 17.7c-1.1-2.9-2.6-5.3-4.5-7.2-1.8-1.9-3.8-3.4-6-4.5-2.2-1.1-4.6-1.9-7-2.3-2.3-0.4-4.6-0.7-6.8-0.7-4.7 0-8.7 0.9-12.2 2.8-3.3 1.8-6.1 4.2-8.3 7.2-2.1 2.9-3.7 6.2-4.8 10-1 3.7-1.5 7.3-1.5 11 0 4.1 0.6 8.1 1.8 11.8 1.2 3.8 3 7.1 5.3 10 2.3 2.9 5.2 5.2 8.5 7 3.4 1.7 7.3 2.5 11.5 2.5 2.2 0 4.5-0.2 6.8-0.7 2.3-0.6 4.6-1.4 6.7-2.5 2.2-1.2 4.2-2.7 5.8-4.5 1.8-1.9 3.2-4.2 4.2-6.8l26.5 15.8c-1.8 4.3-4.5 8.2-8.2 11.7-3.6 3.4-7.7 6.3-12.3 8.7-4.6 2.3-9.5 4.1-14.8 5.3-5.2 1.2-10.3 1.8-15.3 1.8-8.8 0-16.8-1.7-24.2-5.2-7.2-3.6-13.5-8.2-18.8-14-5.2-5.8-9.3-12.3-12.2-19.7-2.9-7.3-4.3-14.8-4.3-22.3 0-7.2 1.3-14.3 4-21.3 2.8-7 6.8-13.3 12-18.8 5.2-5.6 11.6-10.1 19-13.5 7.4-3.4 15.9-5.2 25.5-5.2z" fill="#5aa02c"/></g></g></svg>